<svg viewBox="0 0 500 500" xmlns="http://www.w3.org/2000/svg">
  <path
      d="M331.081 0C335.586 0 337.838 2.25225 337.838 6.75676C337.838 11.2613 335.586 13.5135 331.081 13.5135C326.577 13.5135 324.324 11.2613 324.324 6.75676C324.324 2.25225 326.577 0 331.081 0Z"/>
  <path
      d="M114.865 27.0271C119.369 27.0271 121.622 29.2794 121.622 33.7839C121.622 38.2884 119.369 40.5406 114.865 40.5406C110.36 40.5406 108.108 38.2884 108.108 33.7839C108.108 29.2794 110.36 27.0271 114.865 27.0271Z"/>
  <path
      d="M209.459 54.0541C213.964 54.0541 216.216 56.3063 216.216 60.8108C216.216 65.3153 213.964 67.5676 209.459 67.5676C204.955 67.5676 202.703 65.3153 202.703 60.8108C202.703 56.3063 204.955 54.0541 209.459 54.0541Z"/>
  <path
      d="M202.703 87.8379C202.703 92.3423 200.451 94.5946 195.946 94.5947C191.442 94.5947 189.189 92.3424 189.189 87.8379V74.3242C189.189 69.8197 191.442 67.5674 195.946 67.5674C200.451 67.5675 202.703 69.8199 202.703 74.3242V87.8379Z"/>
  <path
      d="M385.135 81.0812C389.64 81.0812 391.892 83.3334 391.892 87.8379C391.892 92.3424 389.64 94.5947 385.135 94.5947C380.631 94.5947 378.378 92.3424 378.378 87.8379C378.378 83.3334 380.631 81.0812 385.135 81.0812Z"/>
  <path
      d="M317.568 94.5946C322.072 94.5946 324.324 96.8469 324.324 101.351C324.324 105.856 322.072 108.108 317.568 108.108C313.063 108.108 310.811 105.856 310.811 101.351C310.811 96.8469 313.063 94.5946 317.568 94.5946Z"/>
  <path
      d="M412.162 108.108C416.667 108.108 418.919 110.36 418.919 114.865C418.919 119.369 416.667 121.622 412.162 121.622C407.658 121.622 405.405 119.369 405.405 114.865C405.405 110.36 407.658 108.108 412.162 108.108Z"/>
  <path
      d="M466.216 108.108C470.721 108.108 472.973 110.36 472.973 114.865C472.973 119.369 470.721 121.622 466.216 121.622C461.712 121.622 459.459 119.369 459.459 114.865C459.459 110.36 461.712 108.108 466.216 108.108Z"/>
  <path
      d="M493.243 108.108C497.748 108.108 500 110.36 500 114.865C500 119.369 497.748 121.622 493.243 121.622C488.739 121.622 486.486 119.369 486.486 114.865C486.486 110.36 488.739 108.108 493.243 108.108Z"/>
  <path
      d="M81.0811 121.622V128.378C81.0811 132.882 78.8287 135.135 74.3242 135.135H60.8105C56.3062 135.135 54.0537 132.882 54.0537 128.378C54.0538 123.874 56.3063 121.622 60.8105 121.622H81.0811ZM87.8379 108.108C92.3424 108.108 94.5947 110.361 94.5947 114.865C94.5946 119.369 92.3422 121.621 87.8379 121.621H67.5674V114.865C67.5674 110.361 69.8198 108.108 74.3242 108.108H87.8379Z"/>
  <path
      d="M182.432 121.622C186.937 121.622 189.189 123.874 189.189 128.378C189.189 132.883 186.937 135.135 182.432 135.135C177.928 135.135 175.676 132.883 175.676 128.378C175.676 123.874 177.928 121.622 182.432 121.622Z"/>
  <path
      d="M445.946 128.378C445.946 132.882 443.694 135.135 439.189 135.135C434.685 135.135 432.433 132.882 432.433 128.378V121.622H445.946V128.378ZM439.189 108.108C443.694 108.108 445.946 110.361 445.946 114.865V121.621H432.433V114.865C432.433 110.361 434.685 108.108 439.189 108.108Z"/>
  <path
      d="M87.8378 135.135C92.3423 135.135 94.5946 137.387 94.5946 141.892C94.5946 146.396 92.3423 148.649 87.8378 148.649C83.3333 148.649 81.0811 146.396 81.0811 141.892C81.0811 137.387 83.3333 135.135 87.8378 135.135Z"/>
  <path
      d="M405.405 141.892C405.405 146.396 403.153 148.648 398.648 148.648C394.144 148.648 391.892 146.396 391.892 141.892V128.378C391.892 123.874 394.144 121.621 398.648 121.621C403.153 121.621 405.405 123.874 405.405 128.378V141.892Z"/>
  <path
      d="M33.7842 121.621C38.2883 121.621 40.5409 123.874 40.541 128.378C40.541 132.882 38.2884 135.135 33.7842 135.135H27.0273V148.648H47.2969C51.8013 148.648 54.0537 150.901 54.0537 155.405C54.0537 159.91 51.8014 162.162 47.2969 162.162H20.2705C15.766 162.162 13.5137 159.91 13.5137 155.405V148.648H6.75684C2.25233 148.648 0 146.396 0 141.892C9.56744e-05 137.387 2.25243 135.135 6.75684 135.135H13.5137V128.378C13.5138 123.874 15.7661 121.621 20.2705 121.621H33.7842Z"/>
  <path
      d="M74.3243 148.649C78.8288 148.649 81.0811 150.901 81.0811 155.405C81.0811 159.91 78.8288 162.162 74.3243 162.162C69.8198 162.162 67.5676 159.91 67.5676 155.405C67.5676 150.901 69.8198 148.649 74.3243 148.649Z"/>
  <path
      d="M148.648 175.676H141.892C137.387 175.676 135.135 173.423 135.135 168.919V162.162H108.108V168.919C108.108 173.423 105.856 175.676 101.352 175.676H87.8379C83.3334 175.676 81.0811 173.423 81.0811 168.919C81.0811 164.414 83.3334 162.162 87.8379 162.162H94.5947V155.405C94.5948 150.901 96.8471 148.648 101.352 148.648H108.108V128.378C108.109 123.874 110.361 121.621 114.865 121.621C119.369 121.621 121.622 123.874 121.622 128.378V148.648H141.892C146.396 148.648 148.648 150.901 148.648 155.405V175.676Z"/>
  <path
      d="M425.676 148.648C430.18 148.648 432.433 150.901 432.433 155.405V168.919C432.433 173.423 430.18 175.676 425.676 175.676H412.162C407.658 175.676 405.405 173.423 405.405 168.919V155.405C405.405 150.901 407.658 148.648 412.162 148.648H425.676Z"/>
  <path
      d="M60.8105 162.162C65.3151 162.162 67.5674 164.414 67.5674 168.919V175.676H74.3242C78.8287 175.676 81.0811 177.928 81.0811 182.433C81.081 186.937 78.8287 189.189 74.3242 189.189H60.8105C56.3062 189.189 54.0537 186.937 54.0537 182.433V168.919C54.0537 164.415 56.3062 162.162 60.8105 162.162Z"/>
  <path
      d="M128.378 175.676C132.882 175.676 135.135 177.928 135.135 182.433C135.135 186.937 132.882 189.189 128.378 189.189H114.865C110.361 189.189 108.108 186.937 108.108 182.433C108.108 177.928 110.361 175.676 114.865 175.676H128.378Z"/>
  <path
      d="M412.162 189.189C416.667 189.189 418.919 191.441 418.919 195.946C418.919 200.45 416.667 202.703 412.162 202.703C407.658 202.703 405.405 200.45 405.405 195.946C405.405 191.441 407.658 189.189 412.162 189.189Z"/>
  <path
      d="M108.108 209.46C108.108 213.964 105.856 216.216 101.352 216.216C96.8472 216.216 94.5949 213.964 94.5947 209.46V202.703H87.8379C83.3335 202.703 81.0812 200.451 81.0811 195.946C81.0811 191.442 83.3334 189.189 87.8379 189.189H101.352C105.856 189.19 108.108 191.442 108.108 195.946V209.46Z"/>
  <path
      d="M148.648 209.46C148.648 213.964 146.396 216.216 141.892 216.216C137.387 216.216 135.135 213.964 135.135 209.46V195.946C135.135 191.442 137.387 189.19 141.892 189.189H148.648V209.46Z"/>
  <path
      d="M378.378 209.46C378.378 213.964 376.126 216.216 371.622 216.216C367.118 216.216 364.865 213.964 364.865 209.46V202.703H351.352V189.189H364.865V162.162H358.108C353.604 162.162 351.352 159.91 351.352 155.405V121.622H371.622C376.126 121.622 378.378 123.874 378.378 128.378V162.162H385.135C389.639 162.162 391.892 164.414 391.892 168.919V175.676H398.648C403.153 175.676 405.405 177.928 405.405 182.433C405.405 186.937 403.153 189.189 398.648 189.189H391.892V195.946C391.891 200.451 389.639 202.703 385.135 202.703H378.378V209.46ZM162.054 135.135H168.811C173.315 135.135 175.567 137.387 175.567 141.892C175.567 146.396 173.315 148.648 168.811 148.648H155.297C150.793 148.648 148.541 146.396 148.541 141.892V121.622H162.054V135.135ZM330.973 121.622C335.477 121.622 337.729 123.874 337.729 128.378C337.729 132.882 335.477 135.135 330.973 135.135H297.189V141.892C297.189 146.396 294.937 148.648 290.433 148.648H202.595V141.892C202.595 137.387 204.847 135.135 209.352 135.135H216.108V128.378C216.109 123.874 218.361 121.622 222.865 121.622C227.369 121.622 229.622 123.874 229.622 128.378V135.135H243.135V128.378C243.135 123.874 245.387 121.622 249.892 121.622H330.973ZM148.54 108.108H135.027V114.865C135.027 119.369 132.775 121.621 128.271 121.621C123.766 121.621 121.514 119.369 121.514 114.865V108.108H114.757C110.252 108.108 108 105.856 108 101.352V87.8379C108 83.3334 110.252 81.0811 114.757 81.0811C119.261 81.0811 121.514 83.3334 121.514 87.8379V94.5947H135.027V81.0811H128.271C123.766 81.0811 121.514 78.8287 121.514 74.3242V67.5674H114.757C110.252 67.5674 108 65.3151 108 60.8105C108 56.3062 110.252 54.0537 114.757 54.0537H135.027V47.2969C135.027 42.7926 137.28 40.541 141.784 40.541H148.54V108.108ZM168.811 67.5674C173.315 67.5674 175.567 69.8197 175.567 74.3242V101.352C175.567 105.856 173.315 108.108 168.811 108.108H162.054V121.621H148.541V94.5947H162.054V74.3242C162.054 69.8198 164.306 67.5675 168.811 67.5674ZM290.541 0C295.045 0.000158635 297.297 2.25249 297.297 6.75684V13.5137H304.054C308.558 13.5137 310.811 15.766 310.811 20.2705V27.0273H331.081C335.586 27.0273 337.838 29.2797 337.838 33.7842V40.541H351.352V6.75684C351.352 2.25233 353.604 0 358.108 0C362.613 9.76016e-05 364.865 2.25243 364.865 6.75684V40.541H378.378V33.7842C378.378 29.2798 380.63 27.0275 385.135 27.0273C389.639 27.0273 391.892 29.2797 391.892 33.7842V60.8105C391.892 65.3151 389.639 67.5674 385.135 67.5674C380.63 67.5673 378.378 65.3149 378.378 60.8105V54.0537H364.865V94.5947H371.622C376.126 94.5949 378.378 96.8472 378.378 101.352C378.378 105.856 376.126 108.108 371.622 108.108H364.865V121.621H344.595C340.09 121.621 337.838 119.369 337.838 114.865C337.838 110.361 340.09 108.108 344.595 108.108H351.352V81.0811H337.838V54.0537H331.081C326.577 54.0537 324.324 51.8014 324.324 47.2969V40.541H297.297V47.2969C297.297 51.8012 295.045 54.0536 290.541 54.0537H243.243V40.541H256.648V27.0273H243.135V67.5674H249.892C254.396 67.5674 256.648 69.8197 256.648 74.3242V87.8379C256.648 92.3424 254.396 94.5947 249.892 94.5947C245.387 94.5946 243.135 92.3423 243.135 87.8379V81.0811H229.622V94.5947H236.378C240.882 94.5947 243.135 96.8471 243.135 101.352V114.865C243.135 119.369 240.882 121.621 236.378 121.621C231.874 121.621 229.622 119.369 229.622 114.865V108.108H209.352C204.847 108.108 202.595 105.856 202.595 101.352C202.595 96.8471 204.847 94.5947 209.352 94.5947H216.108V74.3242C216.108 69.8197 218.361 67.5674 222.865 67.5674H229.622V40.541H202.595V47.2969C202.595 51.8014 200.342 54.0537 195.838 54.0537H148.541V40.541H175.567V27.0273H148.541V6.75684C148.541 2.25247 150.793 0.000136363 155.297 0C159.801 0 162.054 2.25233 162.054 6.75684V13.5137H175.567V6.75684C175.567 2.25236 177.82 2.95549e-05 182.324 0C186.829 0 189.081 2.25233 189.081 6.75684V27.0273H202.595V20.2705C202.595 15.766 204.847 13.5137 209.352 13.5137H243.135V6.75684C243.135 2.25242 245.387 9.05896e-05 249.892 0C254.396 0 256.648 2.25233 256.648 6.75684V13.5137H263.405C267.91 13.5137 270.162 15.766 270.162 20.2705V40.541H283.784V13.5137H277.027C272.523 13.5137 270.271 11.2613 270.271 6.75684C270.271 2.25233 272.523 0 277.027 0H290.541ZM303.946 67.5674C308.451 67.5675 310.703 69.8199 310.703 74.3242V87.8379C310.703 92.3423 308.451 94.5946 303.946 94.5947C299.442 94.5947 297.189 92.3424 297.189 87.8379V81.0811H283.676V94.5947H290.433C294.937 94.5948 297.189 96.8471 297.189 101.352C297.189 105.856 294.937 108.108 290.433 108.108H270.162V121.621H256.648V101.352C256.648 96.8471 258.901 94.5948 263.405 94.5947H270.162V74.3242C270.162 69.8197 272.414 67.5674 276.919 67.5674H303.946ZM303.946 108.108C308.451 108.109 310.703 110.361 310.703 114.865V121.621H297.189V114.865C297.189 110.361 299.442 108.108 303.946 108.108ZM337.729 87.8379C337.729 92.3424 335.477 94.5947 330.973 94.5947C326.468 94.5946 324.216 92.3423 324.216 87.8379V74.3242C324.216 69.8198 326.468 67.5675 330.973 67.5674H337.729V87.8379ZM128.271 0C132.775 7.72569e-05 135.027 2.25241 135.027 6.75684V13.5137H148.54V27.0273H128.271C123.766 27.0273 121.514 24.7748 121.514 20.2705V13.5137H114.757C110.252 13.5137 108 11.2613 108 6.75684C108 2.25233 110.252 0 114.757 0H128.271Z"/>
  <path
      d="M425.676 202.703C430.18 202.703 432.432 204.955 432.432 209.46C432.432 213.964 430.18 216.216 425.676 216.216C421.171 216.216 418.919 213.964 418.919 209.46C418.919 204.955 421.171 202.703 425.676 202.703Z"/>
  <path
      d="M87.8378 216.216C92.3423 216.216 94.5946 218.468 94.5946 222.973C94.5946 227.477 92.3423 229.73 87.8378 229.73C83.3333 229.73 81.0811 227.477 81.0811 222.973C81.0811 218.468 83.3333 216.216 87.8378 216.216Z"/>
  <path
      d="M358.108 216.216C362.613 216.216 364.865 218.468 364.865 222.973C364.865 227.477 362.613 229.73 358.108 229.73C353.604 229.73 351.351 227.477 351.351 222.973C351.351 218.468 353.604 216.216 358.108 216.216Z"/>
  <path
      d="M398.648 202.703C403.153 202.703 405.405 204.955 405.405 209.46V216.216H412.162C416.667 216.216 418.919 218.468 418.919 222.973C418.919 227.477 416.667 229.729 412.162 229.729H398.648C394.144 229.729 391.892 227.477 391.892 222.973V209.46C391.892 204.956 394.144 202.703 398.648 202.703Z"/>
  <path
      d="M6.75684 162.162C11.2613 162.162 13.5137 164.414 13.5137 168.919V175.676H33.7842C38.2884 175.676 40.541 177.928 40.541 182.433V202.703H60.8105C65.3151 202.703 67.5674 204.955 67.5674 209.46C67.5672 213.964 65.3149 216.216 60.8105 216.216H40.541V229.729H47.2969C51.8013 229.729 54.0537 231.982 54.0537 236.486C54.0537 240.991 51.8014 243.243 47.2969 243.243H33.7842C29.2797 243.243 27.0273 240.991 27.0273 236.486V189.189H13.5137V209.46C13.5135 213.964 11.2611 216.216 6.75684 216.216C2.25248 216.216 0.000148463 213.964 0 209.46V168.919C0 164.414 2.25233 162.162 6.75684 162.162Z"/>
  <path
      d="M459.459 236.486C459.459 240.991 457.207 243.243 452.703 243.243C448.199 243.243 445.946 240.991 445.946 236.486V229.729H439.189C434.685 229.729 432.433 227.477 432.433 222.973C432.433 218.468 434.685 216.216 439.189 216.216H445.946V209.46C445.946 204.955 448.199 202.703 452.703 202.703H459.459V236.486ZM479.729 175.676C484.234 175.676 486.486 177.928 486.486 182.433V189.189H493.243C497.748 189.189 500 191.442 500 195.946V222.973C500 227.477 497.748 229.729 493.243 229.729H459.46V202.703H466.216C470.72 202.703 472.973 204.955 472.973 209.46V216.216H486.486V202.703H479.729C475.225 202.703 472.973 200.451 472.973 195.946V189.189H459.46V175.676H479.729ZM459.459 189.189H452.703C448.199 189.189 445.946 186.937 445.946 182.433V141.892C445.946 137.387 448.199 135.135 452.703 135.135H459.459V189.189ZM493.243 135.135C497.748 135.135 500 137.387 500 141.892V155.405C500 159.91 497.748 162.162 493.243 162.162H479.729C475.225 162.162 472.973 159.91 472.973 155.405V148.648H459.46V135.135H493.243Z"/>
  <path
      d="M6.75676 243.243C11.2613 243.243 13.5135 245.496 13.5135 250C13.5135 254.505 11.2613 256.757 6.75676 256.757C2.25225 256.757 0 254.505 0 250C0 245.496 2.25225 243.243 6.75676 243.243Z"/>
  <path
      d="M128.378 216.216C132.882 216.216 135.135 218.468 135.135 222.973V229.729H141.892C146.396 229.729 148.648 231.982 148.648 236.486V250C148.648 254.505 146.396 256.757 141.892 256.757H128.378C123.874 256.757 121.622 254.504 121.622 250V243.243H101.352C96.8471 243.243 94.5947 240.991 94.5947 236.486C94.5948 231.982 96.8471 229.729 101.352 229.729H121.622V222.973C121.622 218.468 123.874 216.216 128.378 216.216Z"/>
  <path
      d="M378.378 250C378.378 254.504 376.126 256.757 371.622 256.757C367.118 256.757 364.865 254.505 364.865 250V236.486C364.865 231.982 367.118 229.729 371.622 229.729H385.135C389.639 229.729 391.892 231.982 391.892 236.486C391.892 240.991 389.639 243.243 385.135 243.243H378.378V250Z"/>
  <path
      d="M466.216 243.243C470.721 243.243 472.973 245.496 472.973 250C472.973 254.505 470.721 256.757 466.216 256.757C461.712 256.757 459.459 254.505 459.459 250C459.459 245.496 461.712 243.243 466.216 243.243Z"/>
  <path
      d="M500 263.514C500 268.018 497.748 270.271 493.243 270.271C488.739 270.27 486.486 268.018 486.486 263.514V250C486.486 245.496 488.739 243.243 493.243 243.243C497.748 243.243 500 245.496 500 250V263.514Z"/>
  <path
      d="M141.892 270.271C146.396 270.271 148.648 272.523 148.648 277.027C148.648 281.532 146.396 283.784 141.892 283.784H128.378C123.874 283.784 121.622 281.531 121.622 277.027C121.622 272.523 123.874 270.271 128.378 270.271H141.892Z"/>
  <path
      d="M27.0273 290.541C27.0272 295.045 24.7747 297.297 20.2705 297.297C15.7662 297.297 13.5138 295.045 13.5137 290.541V283.784H6.75684C2.25244 283.784 0.000107775 281.532 0 277.027C0 272.523 2.25233 270.271 6.75684 270.271H13.5137V263.514C13.5137 259.009 15.766 256.757 20.2705 256.757C24.7749 256.757 27.0273 259.009 27.0273 263.514V270.271H33.7842C38.2884 270.271 40.541 272.523 40.541 277.027C40.5409 281.532 38.2883 283.784 33.7842 283.784H27.0273V290.541Z"/>
  <path
      d="M472.973 290.541C472.973 295.045 470.72 297.297 466.216 297.297C461.712 297.297 459.459 295.045 459.459 290.541V277.027C459.459 272.523 461.712 270.271 466.216 270.271H479.729C484.234 270.271 486.486 272.523 486.486 277.027C486.486 281.532 484.234 283.784 479.729 283.784H472.973V290.541Z"/>
  <path
      d="M6.75676 297.297C11.2613 297.297 13.5135 299.55 13.5135 304.054C13.5135 308.559 11.2613 310.811 6.75676 310.811C2.25225 310.811 0 308.559 0 304.054C0 299.55 2.25225 297.297 6.75676 297.297Z"/>
  <path
      d="M141.892 297.297H148.649V310.811H141.892C137.387 310.811 135.135 308.559 135.135 304.054C135.135 299.55 137.387 297.297 141.892 297.297Z"/>
  <path
      d="M432.433 304.054C432.433 308.558 430.18 310.811 425.676 310.811C421.171 310.811 418.919 308.558 418.919 304.054V297.298H432.433V304.054ZM425.676 229.729C430.18 229.73 432.433 231.982 432.433 236.486V256.757H452.703C457.207 256.757 459.459 259.009 459.459 263.514C459.459 268.018 457.207 270.27 452.703 270.271H445.946V290.541C445.946 295.045 443.694 297.297 439.189 297.297H418.919V290.541C418.919 286.037 421.171 283.784 425.676 283.784H432.433V270.271H425.676C421.171 270.271 418.919 268.018 418.919 263.514V236.486C418.919 231.982 421.171 229.729 425.676 229.729Z"/>
  <path
      d="M493.243 297.297C497.748 297.297 500 299.549 500 304.054C500 308.558 497.748 310.811 493.243 310.811H479.729C475.225 310.81 472.973 308.558 472.973 304.054C472.973 299.55 475.225 297.297 479.729 297.297H493.243Z"/>
  <path
      d="M20.2703 310.811C24.7748 310.811 27.027 313.063 27.027 317.568C27.027 322.072 24.7748 324.324 20.2703 324.324C15.7658 324.324 13.5135 322.072 13.5135 317.568C13.5135 313.063 15.7658 310.811 20.2703 310.811Z"/>
  <path
      d="M101.352 324.324C105.856 324.324 108.108 326.577 108.108 331.081C108.108 335.585 105.856 337.838 101.352 337.838H87.8379C83.3334 337.838 81.0811 335.586 81.0811 331.081C81.0811 326.577 83.3334 324.324 87.8379 324.324H101.352Z"/>
  <path
      d="M141.892 324.324C146.396 324.324 148.648 326.577 148.648 331.081C148.648 335.586 146.396 337.838 141.892 337.838H128.378C123.874 337.838 121.622 335.585 121.622 331.081C121.622 326.577 123.874 324.324 128.378 324.324H141.892Z"/>
  <path
      d="M493.243 324.324C497.748 324.324 500 326.577 500 331.081C500 335.586 497.748 337.838 493.243 337.838H479.729C475.225 337.838 472.973 335.585 472.973 331.081C472.973 326.577 475.225 324.324 479.729 324.324H493.243Z"/>
  <path
      d="M67.5674 344.595C67.5674 349.099 65.315 351.352 60.8105 351.352C56.3062 351.351 54.0537 349.099 54.0537 344.595V310.811H33.7842C29.2797 310.811 27.0273 308.558 27.0273 304.054C27.0275 299.549 29.2798 297.298 33.7842 297.298H67.5674V310.811H74.3242C78.8287 310.811 81.081 313.063 81.0811 317.567C81.0811 322.072 78.8287 324.324 74.3242 324.324H67.5674V344.595ZM121.622 317.567C121.622 322.072 119.37 324.324 114.865 324.324C110.361 324.324 108.108 322.072 108.108 317.567V310.811H87.8379C83.3334 310.811 81.0811 308.558 81.0811 304.054C81.0812 299.549 83.3335 297.298 87.8379 297.298H121.622V317.567ZM87.8379 243.243C92.3423 243.243 94.5947 245.496 94.5947 250C94.5947 254.504 92.3424 256.757 87.8379 256.757H81.0811V270.271H94.5947V263.514C94.5947 259.009 96.8471 256.757 101.352 256.757H114.865C119.37 256.757 121.622 259.009 121.622 263.514C121.622 268.018 119.369 270.27 114.865 270.271H108.108V283.784H114.865C119.37 283.784 121.622 286.037 121.622 290.541V297.297H94.5947V283.784H67.5674V297.297H54.0537V263.514C54.0537 259.009 56.3062 256.757 60.8105 256.757H67.5674V250C67.5674 245.496 69.8198 243.243 74.3242 243.243H87.8379Z"/>
  <path
      d="M459.459 344.595C459.459 349.099 457.207 351.351 452.703 351.352C448.199 351.352 445.946 349.099 445.946 344.595V324.324H439.189C434.685 324.324 432.433 322.072 432.433 317.567C432.433 313.063 434.685 310.811 439.189 310.811H452.703C457.207 310.811 459.459 313.063 459.459 317.567V344.595Z"/>
  <path
      d="M87.8379 351.352C92.3424 351.352 94.5947 353.604 94.5947 358.108C94.5946 362.613 92.3422 364.865 87.8379 364.865H74.3242C69.8199 364.865 67.5675 362.613 67.5674 358.108C67.5674 353.604 69.8198 351.352 74.3242 351.352H87.8379Z"/>
  <path
      d="M195.946 351.351C200.45 351.351 202.703 353.604 202.703 358.108C202.703 362.613 200.45 364.865 195.946 364.865C191.441 364.865 189.189 362.613 189.189 358.108C189.189 353.604 191.441 351.351 195.946 351.351Z"/>
  <path
      d="M114.865 364.865C119.369 364.865 121.622 367.117 121.622 371.622C121.622 376.126 119.369 378.378 114.865 378.378C110.36 378.378 108.108 376.126 108.108 371.622C108.108 367.117 110.36 364.865 114.865 364.865Z"/>
  <path
      d="M13.5137 385.135C13.5137 389.639 11.2613 391.892 6.75684 391.892C2.25233 391.892 0 389.639 0 385.135V331.081C0 326.577 2.25233 324.324 6.75684 324.324C11.2613 324.324 13.5137 326.577 13.5137 331.081V337.838H20.2705C24.7749 337.838 27.0273 340.09 27.0273 344.595C27.0273 349.099 24.7748 351.351 20.2705 351.352H13.5137V385.135Z"/>
  <path
      d="M47.2969 351.352C51.8014 351.352 54.0537 353.604 54.0537 358.108V364.865H60.8105C65.3151 364.865 67.5674 367.118 67.5674 371.622V385.135C67.5674 389.639 65.3151 391.892 60.8105 391.892H33.7842C29.2797 391.892 27.0273 389.639 27.0273 385.135V358.108C27.0273 353.604 29.2797 351.352 33.7842 351.352H47.2969Z"/>
  <path
      d="M101.352 378.378C105.856 378.378 108.108 380.631 108.108 385.135C108.108 389.639 105.856 391.892 101.352 391.892H87.8379C83.3334 391.892 81.0811 389.639 81.0811 385.135C81.0812 380.63 83.3335 378.378 87.8379 378.378H101.352Z"/>
  <path
      d="M358.108 405.405C362.613 405.405 364.865 407.658 364.865 412.162C364.865 416.667 362.613 418.919 358.108 418.919H344.595C340.09 418.919 337.838 416.667 337.838 412.162C337.838 407.658 340.09 405.405 344.595 405.405H358.108Z"/>
  <path
      d="M412.162 405.405C416.667 405.405 418.919 407.658 418.919 412.162C418.919 416.667 416.667 418.919 412.162 418.919C407.658 418.919 405.405 416.667 405.405 412.162C405.405 407.658 407.658 405.405 412.162 405.405Z"/>
  <path
      d="M466.216 405.405C470.721 405.405 472.973 407.658 472.973 412.162C472.973 416.667 470.721 418.919 466.216 418.919C461.712 418.919 459.459 416.667 459.459 412.162C459.459 407.658 461.712 405.405 466.216 405.405Z"/>
  <path
      d="M493.243 405.405C497.748 405.405 500 407.658 500 412.162C500 416.667 497.748 418.919 493.243 418.919C488.739 418.919 486.486 416.667 486.486 412.162C486.486 407.658 488.739 405.405 493.243 405.405Z"/>
  <path
      d="M114.865 418.919C119.369 418.919 121.622 421.171 121.622 425.676C121.622 430.18 119.369 432.432 114.865 432.432C110.36 432.432 108.108 430.18 108.108 425.676C108.108 421.171 110.36 418.919 114.865 418.919Z"/>
  <path
      d="M155.405 445.946C159.91 445.946 162.162 448.199 162.162 452.703C162.162 457.207 159.91 459.459 155.405 459.459H141.892C137.387 459.459 135.135 457.207 135.135 452.703C135.135 448.199 137.387 445.946 141.892 445.946H155.405Z"/>
  <path
      d="M290.541 445.946C295.045 445.946 297.297 448.198 297.297 452.703C297.297 457.207 295.045 459.459 290.541 459.459C286.036 459.459 283.784 457.207 283.784 452.703C283.784 448.198 286.036 445.946 290.541 445.946Z"/>
  <path
      d="M331.081 445.946C335.586 445.946 337.838 448.199 337.838 452.703C337.838 457.207 335.585 459.459 331.081 459.459H317.567C313.063 459.459 310.811 457.207 310.811 452.703C310.811 448.199 313.063 445.946 317.567 445.946H331.081Z"/>
  <path
      d="M128.378 459.459C132.883 459.459 135.135 461.712 135.135 466.216C135.135 470.721 132.883 472.973 128.378 472.973C123.874 472.973 121.622 470.721 121.622 466.216C121.622 461.712 123.874 459.459 128.378 459.459Z"/>
  <path
      d="M222.973 459.459C227.477 459.459 229.73 461.712 229.73 466.216C229.73 470.721 227.477 472.973 222.973 472.973C218.468 472.973 216.216 470.721 216.216 466.216C216.216 461.712 218.468 459.459 222.973 459.459Z"/>
  <path
      d="M344.595 459.459C349.099 459.459 351.351 461.712 351.351 466.216C351.351 470.721 349.099 472.973 344.595 472.973C340.09 472.973 337.838 470.721 337.838 466.216C337.838 461.712 340.09 459.459 344.595 459.459Z"/>
  <path
      d="M378.378 466.216C378.378 470.72 376.126 472.972 371.622 472.973C367.118 472.973 364.865 470.72 364.865 466.216V459.46H378.378V466.216ZM472.973 466.216C472.973 470.72 470.72 472.973 466.216 472.973C461.712 472.973 459.46 470.72 459.46 466.216V459.46H472.973V466.216ZM398.648 297.298C403.153 297.298 405.405 299.549 405.405 304.054V310.811H412.162C416.667 310.811 418.919 313.063 418.919 317.567V331.081C418.919 335.586 416.667 337.838 412.162 337.838H391.892V344.595C391.892 349.099 389.639 351.352 385.135 351.352H378.378V378.378H405.405V364.865H398.648C394.144 364.865 391.892 362.613 391.892 358.108C391.892 353.604 394.144 351.352 398.648 351.352H418.919V344.595C418.919 340.09 421.171 337.838 425.676 337.838C430.18 337.838 432.433 340.09 432.433 344.595V351.352H439.189C443.694 351.352 445.946 353.604 445.946 358.108V364.865H459.459V391.892H445.946V418.919H452.703C457.207 418.919 459.459 421.171 459.459 425.676V445.946H418.919V452.703C418.919 457.207 416.666 459.459 412.162 459.459H398.648C394.144 459.459 391.892 457.207 391.892 452.703V445.946H378.378V459.459H358.108C353.604 459.459 351.352 457.207 351.352 452.703V445.946H344.595C340.09 445.946 337.838 443.694 337.838 439.189C337.838 434.685 340.09 432.433 344.595 432.433H364.865V425.676C364.865 421.171 367.118 418.919 371.622 418.919H378.378V391.892H324.324V412.162C324.324 416.667 322.072 418.919 317.567 418.919H310.811V439.189C310.81 443.694 308.558 445.946 304.054 445.946C299.55 445.946 297.297 443.694 297.297 439.189V412.162C297.297 407.658 299.549 405.405 304.054 405.405H310.811V391.892H270.271V398.648C270.271 403.153 268.018 405.405 263.514 405.405H256.757V432.433H277.027C281.532 432.433 283.784 434.685 283.784 439.189C283.784 443.694 281.532 445.946 277.027 445.946H270.271V452.703C270.27 457.207 268.018 459.459 263.514 459.459H236.486C231.982 459.459 229.73 457.207 229.729 452.703V445.946H209.459C204.955 445.946 202.703 443.694 202.703 439.189C202.703 434.685 204.955 432.433 209.459 432.433H229.729V418.919H222.973C218.468 418.919 216.216 416.667 216.216 412.162C216.216 407.658 218.468 405.405 222.973 405.405H229.729V378.378H222.973C218.469 378.378 216.216 376.126 216.216 371.622V358.108C216.216 353.604 218.468 351.352 222.973 351.352H243.243V364.865H250C254.505 364.865 256.757 367.118 256.757 371.622C256.757 376.126 254.504 378.378 250 378.378H243.243V391.892H256.757V385.135C256.757 380.63 259.009 378.378 263.514 378.378H283.784V364.865H277.027C272.523 364.865 270.271 362.613 270.271 358.108V351.352H310.811V378.378H351.352V364.865H344.595C340.09 364.865 337.838 362.613 337.838 358.108V351.352H351.352V337.838H378.378V324.324H371.622C367.118 324.324 364.865 322.072 364.865 317.567V310.811H358.108C353.604 310.811 351.352 308.558 351.352 304.054C351.352 299.549 353.604 297.298 358.108 297.298H398.648ZM479.729 418.919C484.234 418.919 486.486 421.171 486.486 425.676V439.189C486.486 443.694 484.234 445.946 479.729 445.946H472.973V459.459H459.46V432.433H472.973V425.676C472.973 421.171 475.225 418.919 479.729 418.919ZM391.892 432.433H432.433V391.892H391.892V432.433ZM493.243 351.352C497.748 351.352 500 353.604 500 358.108C500 362.613 497.748 364.865 493.243 364.865H486.486V378.378H493.243C497.748 378.378 500 380.63 500 385.135C500 389.639 497.748 391.892 493.243 391.892H486.486V398.648C486.486 403.153 484.234 405.405 479.729 405.405C475.225 405.405 472.973 403.153 472.973 398.648V391.892H459.46V364.865H472.973V358.108C472.973 353.604 475.225 351.352 479.729 351.352H493.243ZM418.919 378.378H432.433V364.865H418.919V378.378ZM358.108 256.757C362.613 256.757 364.865 259.009 364.865 263.514V270.271H412.162C416.667 270.271 418.919 272.523 418.919 277.027C418.919 281.532 416.667 283.784 412.162 283.784H391.892V297.297H364.865V283.784H351.352V263.514C351.352 259.009 353.604 256.757 358.108 256.757Z"/>
  <path
      d="M162.162 472.973V466.216C162.162 461.712 164.415 459.46 168.919 459.46H189.189V466.216C189.189 470.72 186.937 472.973 182.433 472.973H175.676V479.729C175.676 484.234 173.423 486.486 168.919 486.486H155.405C150.901 486.486 148.648 484.234 148.648 479.729C148.649 475.225 150.901 472.973 155.405 472.973H162.162ZM155.405 351.352C159.91 351.352 162.162 353.604 162.162 358.108V364.865H182.433C186.937 364.865 189.189 367.118 189.189 371.622C189.189 376.126 186.937 378.378 182.433 378.378H175.676V391.892H195.946C200.45 391.892 202.703 394.144 202.703 398.648V425.676C202.703 430.18 200.45 432.432 195.946 432.433H189.189V445.946H195.946C200.451 445.946 202.703 448.199 202.703 452.703C202.703 457.207 200.45 459.459 195.946 459.459H175.676V405.405H155.405C150.901 405.405 148.648 403.153 148.648 398.648V391.892H135.135V405.405H141.892C146.396 405.405 148.648 407.658 148.648 412.162C148.648 416.667 146.396 418.919 141.892 418.919H128.378C123.874 418.919 121.622 416.666 121.622 412.162V405.405H114.865C110.361 405.405 108.108 403.153 108.108 398.648C108.108 394.144 110.361 391.892 114.865 391.892H121.622V385.135C121.622 380.631 123.874 378.378 128.378 378.378H135.135V364.865H128.378C123.874 364.865 121.622 362.613 121.622 358.108C121.622 353.604 123.874 351.352 128.378 351.352H155.405Z"/>
  <path
      d="M195.946 472.973C200.45 472.973 202.703 475.225 202.703 479.73C202.703 484.234 200.45 486.486 195.946 486.486C191.441 486.486 189.189 484.234 189.189 479.73C189.189 475.225 191.441 472.973 195.946 472.973Z"/>
  <path
      d="M250 472.973C254.505 472.973 256.757 475.225 256.757 479.73C256.757 484.234 254.505 486.486 250 486.486C245.495 486.486 243.243 484.234 243.243 479.73C243.243 475.225 245.495 472.973 250 472.973Z"/>
  <path
      d="M304.054 472.973C308.558 472.973 310.81 475.225 310.811 479.729C310.811 484.234 308.558 486.486 304.054 486.486H290.541C286.037 486.486 283.784 484.234 283.784 479.729C283.784 475.225 286.037 472.973 290.541 472.973H304.054Z"/>
  <path
      d="M331.081 472.973C335.586 472.973 337.838 475.225 337.838 479.73C337.838 484.234 335.586 486.486 331.081 486.486C326.577 486.486 324.324 484.234 324.324 479.73C324.324 475.225 326.577 472.973 331.081 472.973Z"/>
  <path
      d="M358.108 472.973C362.613 472.973 364.865 475.225 364.865 479.73C364.865 484.234 362.613 486.486 358.108 486.486C353.604 486.486 351.351 484.234 351.351 479.73C351.351 475.225 353.604 472.973 358.108 472.973Z"/>
  <path
      d="M128.378 486.487C132.883 486.487 135.135 488.739 135.135 493.243C135.135 497.748 132.883 500 128.378 500C123.874 500 121.622 497.748 121.622 493.243C121.622 488.739 123.874 486.487 128.378 486.487Z"/>
  <path
      d="M182.432 486.487C186.937 486.487 189.189 488.739 189.189 493.243C189.189 497.748 186.937 500 182.432 500C177.928 500 175.676 497.748 175.676 493.243C175.676 488.739 177.928 486.487 182.432 486.487Z"/>
  <path
      d="M222.973 486.486C227.477 486.486 229.729 488.739 229.729 493.243C229.729 497.748 227.477 500 222.973 500H209.459C204.955 500 202.703 497.748 202.703 493.243C202.703 488.739 204.955 486.486 209.459 486.486H222.973Z"/>
  <path
      d="M277.027 486.486C281.532 486.486 283.784 488.739 283.784 493.243C283.784 497.748 281.532 500 277.027 500H263.514C259.009 500 256.757 497.748 256.757 493.243C256.757 488.739 259.009 486.486 263.514 486.486H277.027Z"/>
  <path
      d="M385.135 472.973C389.639 472.973 391.892 475.225 391.892 479.729V486.486H418.919V466.216C418.919 461.712 421.171 459.459 425.676 459.459C430.18 459.459 432.432 461.712 432.433 466.216V493.243C432.433 497.748 430.18 500 425.676 500H385.135C380.63 500 378.378 497.748 378.378 493.243V479.729C378.378 475.225 380.631 472.973 385.135 472.973Z"/>
  <path
      d="M452.703 486.487C457.207 486.487 459.459 488.739 459.459 493.243C459.459 497.748 457.207 500 452.703 500C448.198 500 445.946 497.748 445.946 493.243C445.946 488.739 448.198 486.487 452.703 486.487Z"/>
  <path
      d="M500 493.243C500 497.748 497.748 500 493.243 500C488.739 500 486.486 497.748 486.486 493.243V466.216C486.486 461.712 488.739 459.459 493.243 459.459C497.748 459.459 500 461.712 500 466.216V493.243Z"/>
  <path
      d="M47.2973 0H66.2162C85.1351 0 94.5946 9.45946 94.5946 28.3784V66.2162C94.5946 85.1351 85.1351 94.5946 66.2162 94.5946H28.3784C9.45946 94.5946 0 85.1351 0 66.2162V28.3784C0 9.45946 9.45946 0 28.3784 0H47.2973V13.5135H33.7838C20.2703 13.5135 13.5135 20.2703 13.5135 33.7838V60.8108C13.5135 74.3243 20.2703 81.0811 33.7838 81.0811H60.8108C74.3243 81.0811 81.0811 74.3243 81.0811 60.8108V33.7838C81.0811 20.2703 74.3243 13.5135 60.8108 13.5135H47.2973V0Z"/>
  <path
      d="M452.703 0H471.622C490.541 0 500 9.45946 500 28.3784V66.2162C500 85.1351 490.541 94.5946 471.622 94.5946H433.784C414.865 94.5946 405.405 85.1351 405.405 66.2162V28.3784C405.405 9.45946 414.865 0 433.784 0H452.703V13.5135H439.189C425.676 13.5135 418.919 20.2703 418.919 33.7838V60.8108C418.919 74.3243 425.676 81.0811 439.189 81.0811H466.216C479.73 81.0811 486.486 74.3243 486.486 60.8108V33.7838C486.486 20.2703 479.73 13.5135 466.216 13.5135H452.703V0Z"/>
  <path
      d="M47.2973 405.405H66.2162C85.1351 405.405 94.5946 414.865 94.5946 433.784V471.622C94.5946 490.541 85.1351 500 66.2162 500H28.3784C9.45946 500 0 490.541 0 471.622V433.784C0 414.865 9.45946 405.405 28.3784 405.405H47.2973V418.919H33.7838C20.2703 418.919 13.5135 425.676 13.5135 439.189V466.216C13.5135 479.73 20.2703 486.486 33.7838 486.486H60.8108C74.3243 486.486 81.0811 479.73 81.0811 466.216V439.189C81.0811 425.676 74.3243 418.919 60.8108 418.919H47.2973V405.405Z"/>
  <path
      d="M47.2973 27.0271H55.4054C63.5135 27.0271 67.5676 31.0812 67.5676 39.1893V55.4055C67.5676 63.5136 63.5135 67.5676 55.4054 67.5676H39.1892C31.0811 67.5676 27.027 63.5136 27.027 55.4055V39.1893C27.027 31.0812 31.0811 27.0271 39.1892 27.0271H47.2973Z"/>
  <path
      d="M452.703 27.0271H460.811C468.919 27.0271 472.973 31.0812 472.973 39.1893V55.4055C472.973 63.5136 468.919 67.5676 460.811 67.5676H444.595C436.486 67.5676 432.432 63.5136 432.432 55.4055V39.1893C432.432 31.0812 436.486 27.0271 444.595 27.0271H452.703Z"/>
  <path
      d="M47.2973 432.432H55.4054C63.5135 432.432 67.5676 436.487 67.5676 444.595V460.811C67.5676 468.919 63.5135 472.973 55.4054 472.973H39.1892C31.0811 472.973 27.027 468.919 27.027 460.811V444.595C27.027 436.487 31.0811 432.432 39.1892 432.432H47.2973Z"/>
  <path
      d="M290 230L250 255L210 230V220L250 245L290 220M290 210H210C204.45 210 200 214.45 200 220V280C200 282.652 201.054 285.196 202.929 287.071C204.804 288.946 207.348 290 210 290H290C292.652 290 295.196 288.946 297.071 287.071C298.946 285.196 300 282.652 300 280V220C300 217.348 298.946 214.804 297.071 212.929C295.196 211.054 292.652 210 290 210Z"/>
</svg>
