<svg viewBox="0 0 500 500" xmlns="http://www.w3.org/2000/svg">
  <path
      d="M232.759 0C238.506 0 241.379 2.87356 241.379 8.62069C241.379 14.3678 238.506 17.2414 232.759 17.2414C227.012 17.2414 224.138 14.3678 224.138 8.62069C224.138 2.87356 227.012 0 232.759 0Z"/>
  <path
      d="M146.552 68.9657C152.299 68.9657 155.172 71.8393 155.172 77.5864C155.172 83.3335 152.299 86.2071 146.552 86.2071C140.805 86.2071 137.931 83.3335 137.931 77.5864C137.931 71.8393 140.805 68.9657 146.552 68.9657Z"/>
  <path
      d="M163.793 0C169.54 6.22534e-05 172.414 2.87381 172.414 8.62088V17.2418H181.034C186.781 17.2418 189.655 20.1155 189.655 25.8626C189.655 31.6095 186.781 34.4824 181.034 34.4824H172.414V51.7242H189.655V43.1033C189.655 37.3563 192.529 34.4825 198.276 34.4824H206.897V25.8626C206.897 20.1155 209.77 17.2418 215.518 17.2418C221.264 17.2419 224.138 20.1156 224.138 25.8626V34.4824H232.758C238.505 34.4824 241.379 37.3562 241.379 43.1033C241.379 48.8504 238.505 51.7242 232.758 51.7242H224.138V60.3451C224.138 66.0919 221.264 68.9658 215.518 68.9659H206.897V77.5868C206.897 83.3336 204.023 86.2066 198.276 86.2066H181.034C175.287 86.2065 172.414 83.3335 172.414 77.5868V68.9659H163.793C158.046 68.9659 155.173 66.0921 155.172 60.3451V8.62088C155.172 2.87375 158.046 0 163.793 0Z"/>
  <path
      d="M344.827 94.8275C344.827 100.575 341.954 103.448 336.207 103.448C330.46 103.448 327.587 100.574 327.587 94.8275V86.2066H301.724C295.977 86.2066 293.103 83.3336 293.103 77.5868V60.3451C293.103 54.5979 295.977 51.7242 301.724 51.7242H344.827V34.4824H293.103V43.1033C293.103 48.8504 290.23 51.7242 284.482 51.7242H275.863V60.3451C275.863 66.0919 272.989 68.9658 267.242 68.9659C261.495 68.9659 258.621 66.0921 258.621 60.3451V43.1033C258.621 37.3562 261.495 34.4824 267.242 34.4824H275.863V8.62088C275.863 2.87387 278.736 0.000118592 284.482 0C290.23 0 293.103 2.87375 293.103 8.62088V17.2418H310.345V8.62088C310.345 2.87375 313.219 0 318.966 0C324.713 0.000107464 327.587 2.87386 327.587 8.62088V17.2418H344.827V8.62088C344.827 2.87375 347.701 0 353.448 0C359.195 1.70425e-05 362.069 2.87377 362.069 8.62088V77.5868C362.069 83.3336 359.195 86.2066 353.448 86.2066H344.827V94.8275Z"/>
  <path
      d="M181.034 103.448C186.782 103.448 189.655 106.322 189.655 112.069C189.655 117.816 186.782 120.69 181.034 120.69C175.287 120.69 172.414 117.816 172.414 112.069C172.414 106.322 175.287 103.448 181.034 103.448Z"/>
  <path
      d="M215.517 103.448C221.264 103.448 224.138 106.322 224.138 112.069C224.138 117.816 221.264 120.69 215.517 120.69C209.77 120.69 206.897 117.816 206.897 112.069C206.897 106.322 209.77 103.448 215.517 103.448Z"/>
  <path
      d="M267.51 137.778C273.257 137.778 276.13 140.651 276.13 146.399C276.13 152.146 273.257 155.019 267.51 155.019C261.762 155.019 258.889 152.146 258.889 146.399C258.889 140.651 261.762 137.778 267.51 137.778Z"/>
  <path
      d="M258.621 112.069C258.621 117.816 255.747 120.69 250 120.69C244.253 120.69 241.379 117.816 241.379 112.069V86.2066H232.758C227.012 86.2065 224.138 83.3335 224.137 77.5868C224.137 71.8398 227.011 68.9661 232.758 68.9659H250C255.747 68.9659 258.621 71.8397 258.621 77.5868V112.069Z"/>
  <path
      d="M353.448 103.448C359.195 103.448 362.069 106.322 362.069 112.069C362.069 117.816 359.195 120.69 353.448 120.69C347.701 120.69 344.828 117.816 344.828 112.069C344.828 106.322 347.701 103.448 353.448 103.448Z"/>
  <path
      d="M241.379 155.172H224.137V129.31C224.138 123.563 227.012 120.69 232.758 120.69C238.505 120.69 241.379 123.563 241.379 129.31V155.172Z"/>
  <path
      d="M267.241 137.931C272.989 137.931 275.862 140.805 275.862 146.552V155.172H258.621V146.552C258.621 140.805 261.494 137.931 267.241 137.931Z"/>
  <path
      d="M318.966 103.448C324.713 103.448 327.587 106.322 327.587 112.069V120.69H336.207C341.954 120.69 344.827 123.563 344.828 129.31V137.931H387.931C393.678 137.931 396.552 140.805 396.552 146.552C396.552 152.299 393.678 155.173 387.931 155.173H336.207C330.46 155.172 327.587 152.299 327.587 146.552V137.931H284.482C278.736 137.931 275.862 135.057 275.862 129.31V112.069C275.862 106.322 278.736 103.448 284.482 103.448C290.23 103.448 293.103 106.322 293.103 112.069V120.69H310.345V112.069C310.345 106.322 313.219 103.448 318.966 103.448Z"/>
  <path
      d="M146.552 103.448C152.299 103.448 155.173 106.322 155.173 112.069V120.69H163.793C169.54 120.69 172.414 123.563 172.414 129.31C172.414 135.057 169.54 137.931 163.793 137.931H155.173V163.793C155.172 169.54 152.299 172.414 146.552 172.414H129.31C123.563 172.414 120.69 169.54 120.69 163.793V155.173H112.069C106.322 155.173 103.448 152.299 103.448 146.552C103.448 140.805 106.322 137.931 112.069 137.931H137.931V112.069C137.931 106.322 140.805 103.448 146.552 103.448Z"/>
  <path
      d="M431.035 163.793C431.035 169.54 428.161 172.414 422.414 172.414C416.667 172.414 413.794 169.54 413.793 163.793V146.552C413.793 140.805 416.667 137.931 422.414 137.931C428.161 137.931 431.035 140.805 431.035 146.552V163.793Z"/>
  <path
      d="M8.62069 172.414C14.3678 172.414 17.2414 175.287 17.2414 181.034C17.2414 186.782 14.3678 189.655 8.62069 189.655C2.87356 189.655 0 186.782 0 181.034C0 175.287 2.87356 172.414 8.62069 172.414Z"/>
  <path
      d="M112.069 172.414C117.816 172.414 120.69 175.287 120.69 181.034C120.69 186.782 117.816 189.655 112.069 189.655C106.322 189.655 103.448 186.782 103.448 181.034C103.448 175.287 106.322 172.414 112.069 172.414Z"/>
  <path
      d="M482.758 181.034C482.758 186.781 479.884 189.655 474.137 189.655C468.391 189.655 465.518 186.781 465.518 181.034V163.793C465.518 158.046 468.391 155.173 474.137 155.172H491.379C497.126 155.172 500 158.046 500 163.793C500 169.54 497.126 172.414 491.379 172.414H482.758V181.034Z"/>
  <path
      d="M51.7242 198.276C51.7242 204.023 48.8504 206.897 43.1033 206.897C37.3562 206.897 34.4824 204.023 34.4824 198.276V146.552C34.4825 140.805 37.3563 137.931 43.1033 137.931H60.3451C66.092 137.931 68.9659 140.805 68.9659 146.552C68.9659 152.299 66.0921 155.172 60.3451 155.173H51.7242V172.414H68.9659V163.793C68.9659 158.046 71.8397 155.173 77.5868 155.173C83.3336 155.173 86.2066 158.046 86.2066 163.793V181.034C86.2066 186.781 83.3336 189.655 77.5868 189.655H51.7242V198.276Z"/>
  <path
      d="M155.172 189.655V206.897H129.31C123.563 206.897 120.69 204.023 120.69 198.276C120.69 192.529 123.563 189.655 129.31 189.655H155.172Z"/>
  <path
      d="M491.379 189.655C497.126 189.655 500 192.529 500 198.276C500 204.023 497.126 206.897 491.379 206.897C485.632 206.897 482.759 204.023 482.759 198.276C482.759 192.529 485.632 189.655 491.379 189.655Z"/>
  <path
      d="M112.069 206.897C117.816 206.897 120.69 209.771 120.69 215.518C120.69 221.264 117.816 224.138 112.069 224.138H94.8274C89.0805 224.138 86.2067 221.264 86.2065 215.518C86.2065 209.771 89.0803 206.897 94.8274 206.897H112.069Z"/>
  <path
      d="M77.5864 224.138C83.3335 224.138 86.2071 227.012 86.2071 232.759C86.2071 238.506 83.3335 241.379 77.5864 241.379C71.8393 241.379 68.9657 238.506 68.9657 232.759C68.9657 227.012 71.8393 224.138 77.5864 224.138Z"/>
  <path
      d="M137.931 267.242C137.931 272.989 135.057 275.863 129.31 275.863C123.563 275.862 120.69 272.989 120.69 267.242V258.621H112.069C106.322 258.621 103.448 255.747 103.448 250C103.448 244.253 106.322 241.379 112.069 241.379H155.173V258.621H137.931V267.242Z"/>
  <path
      d="M439.655 258.621C445.402 258.621 448.276 261.494 448.276 267.241C448.276 272.989 445.402 275.862 439.655 275.862C433.908 275.862 431.035 272.989 431.035 267.241C431.035 261.494 433.908 258.621 439.655 258.621Z"/>
  <path
      d="M86.2066 284.482C86.2066 290.229 83.3336 293.103 77.5868 293.103C71.8397 293.103 68.9659 290.23 68.9659 284.482V267.242C68.9659 261.495 71.8397 258.621 77.5868 258.621C83.3336 258.621 86.2066 261.495 86.2066 267.242V284.482Z"/>
  <path
      d="M112.069 275.862C117.816 275.862 120.69 278.736 120.69 284.483C120.69 290.23 117.816 293.103 112.069 293.103C106.322 293.103 103.448 290.23 103.448 284.483C103.448 278.736 106.322 275.862 112.069 275.862Z"/>
  <path
      d="M51.7242 301.724C51.7242 307.471 48.8504 310.345 43.1033 310.345C37.3562 310.345 34.4824 307.471 34.4824 301.724V293.103H8.62088C2.87375 293.103 0 290.23 0 284.482C0.00011859 278.736 2.87387 275.863 8.62088 275.863H34.4824V258.621H8.62088C2.87375 258.621 0 255.747 0 250C2.81687e-05 244.253 2.87378 241.379 8.62088 241.379H17.2418V224.138H8.62088C2.87386 224.138 0.000107466 221.265 0 215.518C0 209.77 2.87375 206.897 8.62088 206.897H25.8626C31.6095 206.897 34.4824 209.771 34.4824 215.518V224.138H43.1033C48.8503 224.138 51.7241 227.011 51.7242 232.758V241.379H60.3451C66.092 241.379 68.9659 244.253 68.9659 250C68.9659 255.747 66.0921 258.621 60.3451 258.621H51.7242V301.724Z"/>
  <path
      d="M8.62069 310.345C14.3678 310.345 17.2414 313.219 17.2414 318.966C17.2414 324.713 14.3678 327.586 8.62069 327.586C2.87356 327.586 0 324.713 0 318.966C0 313.219 2.87356 310.345 8.62069 310.345Z"/>
  <path
      d="M94.8274 293.103C100.575 293.103 103.448 295.977 103.448 301.724V310.345H112.069C117.816 310.345 120.69 313.219 120.69 318.966C120.69 324.713 117.816 327.587 112.069 327.587H94.8274C89.0805 327.587 86.2067 324.713 86.2065 318.966V301.724C86.2065 295.977 89.0803 293.103 94.8274 293.103Z"/>
  <path
      d="M60.3451 327.586C66.092 327.586 68.9658 330.46 68.9659 336.207C68.9659 341.954 66.0921 344.827 60.3451 344.828H43.1033C37.3562 344.827 34.4824 341.954 34.4824 336.207C34.4825 330.46 37.3563 327.586 43.1033 327.586H60.3451Z"/>
  <path
      d="M25.8621 344.828C31.6093 344.828 34.4828 347.701 34.4828 353.448C34.4828 359.195 31.6093 362.069 25.8621 362.069C20.115 362.069 17.2415 359.195 17.2415 353.448C17.2415 347.701 20.115 344.828 25.8621 344.828Z"/>
  <path
      d="M112.069 344.828C117.816 344.828 120.69 347.701 120.69 353.448C120.69 359.195 117.816 362.069 112.069 362.069C106.322 362.069 103.448 359.195 103.448 353.448C103.448 347.701 106.322 344.828 112.069 344.828Z"/>
  <path
      d="M198.276 362.069C204.023 362.069 206.897 364.943 206.897 370.69C206.897 376.437 204.023 379.31 198.276 379.31H181.034C175.287 379.31 172.413 376.437 172.413 370.69C172.413 364.943 175.287 362.069 181.034 362.069H198.276Z"/>
  <path
      d="M500 370.69C500 376.437 497.126 379.31 491.379 379.31C485.632 379.31 482.758 376.437 482.758 370.69V353.448C482.758 347.701 485.632 344.828 491.379 344.828C497.126 344.828 500 347.701 500 353.448V370.69Z"/>
  <path
      d="M146.552 275.862C152.299 275.862 155.172 278.736 155.172 284.482V344.828H172.414V353.448C172.414 359.195 169.54 362.069 163.793 362.069H155.172V379.31H163.793C169.54 379.31 172.414 382.184 172.414 387.931C172.414 393.678 169.54 396.552 163.793 396.552H146.552C140.805 396.552 137.931 393.678 137.931 387.931V310.345H129.31C123.563 310.345 120.69 307.471 120.69 301.724C120.69 295.977 123.563 293.103 129.31 293.103H137.931V284.482C137.931 278.736 140.805 275.862 146.552 275.862Z"/>
  <path
      d="M215.517 379.31C221.264 379.31 224.138 382.184 224.138 387.931C224.138 393.678 221.264 396.552 215.517 396.552C209.77 396.552 206.897 393.678 206.897 387.931C206.897 382.184 209.77 379.31 215.517 379.31Z"/>
  <path
      d="M387.931 379.31C393.678 379.31 396.552 382.184 396.552 387.931C396.552 393.678 393.678 396.552 387.931 396.552C382.184 396.552 379.31 393.678 379.31 387.931C379.31 382.184 382.184 379.31 387.931 379.31Z"/>
  <path
      d="M474.138 431.035C479.885 431.035 482.759 433.908 482.759 439.655C482.759 445.402 479.885 448.276 474.138 448.276C468.391 448.276 465.517 445.402 465.517 439.655C465.517 433.908 468.391 431.035 474.138 431.035Z"/>
  <path
      d="M206.897 456.897C206.897 462.644 204.023 465.518 198.276 465.518C192.529 465.518 189.655 462.644 189.655 456.897V448.276H181.034C175.287 448.276 172.413 445.402 172.413 439.655C172.413 433.908 175.287 431.034 181.034 431.034H189.655V422.414C189.655 416.667 192.529 413.793 198.276 413.793C204.023 413.793 206.897 416.667 206.897 422.414V431.034H215.518C221.264 431.034 224.138 433.908 224.138 439.655C224.138 445.402 221.265 448.276 215.518 448.276H206.897V456.897Z"/>
  <path
      d="M439.655 448.276C445.402 448.276 448.276 451.15 448.276 456.897C448.276 462.644 445.402 465.517 439.655 465.517C433.908 465.517 431.035 462.644 431.035 456.897C431.035 451.15 433.908 448.276 439.655 448.276Z"/>
  <path
      d="M491.379 448.276C497.126 448.276 500 451.15 500 456.897C500 462.644 497.126 465.517 491.379 465.517C485.632 465.517 482.759 462.644 482.759 456.897C482.759 451.15 485.632 448.276 491.379 448.276Z"/>
  <path
      d="M146.552 431.034C152.299 431.034 155.172 433.908 155.173 439.655V448.276H163.793C169.54 448.276 172.414 451.15 172.414 456.897V465.518H181.034C186.781 465.518 189.655 468.391 189.655 474.137V482.758H215.518C221.264 482.758 224.138 485.632 224.138 491.379C224.138 497.126 221.265 500 215.518 500H163.793C158.046 500 155.173 497.126 155.173 491.379V465.518H146.552C140.805 465.518 137.931 462.644 137.931 456.897V439.655C137.931 433.908 140.805 431.034 146.552 431.034Z"/>
  <path
      d="M301.724 482.759C307.471 482.759 310.345 485.632 310.345 491.379C310.345 497.126 307.471 500 301.724 500C295.977 500 293.104 497.126 293.104 491.379C293.104 485.632 295.977 482.759 301.724 482.759Z"/>
  <path
      d="M362.069 482.758V465.518H344.828V474.137C344.828 479.885 341.954 482.758 336.207 482.758H318.966C313.219 482.758 310.345 479.885 310.345 474.137C310.345 468.391 313.219 465.518 318.966 465.518H327.587V456.897C327.587 451.15 330.46 448.276 336.207 448.276H344.828V413.793H327.587V439.655C327.587 445.402 324.713 448.276 318.966 448.276H310.345V456.897C310.345 462.644 307.471 465.518 301.724 465.518H293.103V474.137C293.103 479.885 290.23 482.758 284.483 482.758H275.863V491.379C275.863 497.126 272.989 500 267.242 500C261.495 500 258.621 497.126 258.621 491.379V482.758H250C244.253 482.758 241.379 479.884 241.379 474.137V465.518H232.758C227.011 465.517 224.137 462.644 224.137 456.897C224.137 451.15 227.011 448.276 232.758 448.276H250C255.747 448.276 258.621 451.15 258.621 456.897V465.518H275.863V439.655C275.863 433.908 278.736 431.034 284.483 431.034H310.345V413.793H301.724C295.977 413.793 293.103 410.92 293.103 405.173V396.552H275.863V422.414C275.863 428.161 272.989 431.034 267.242 431.034C261.495 431.034 258.621 428.161 258.621 422.414V413.793H241.379V422.414C241.379 428.161 238.505 431.034 232.758 431.034C227.012 431.034 224.138 428.161 224.137 422.414V405.173C224.137 399.426 227.011 396.552 232.758 396.552H241.379V362.069H232.758C227.011 362.069 224.137 359.195 224.137 353.448V344.827H310.345V396.552H327.587V370.69C327.587 364.943 330.46 362.069 336.207 362.069H344.828V353.448C344.828 347.701 347.701 344.827 353.448 344.827H362.069V318.966C362.069 313.219 364.943 310.345 370.69 310.345H379.31V293.103H362.069V301.724C362.069 307.471 359.196 310.345 353.448 310.345H344.828V284.482C344.828 278.736 347.701 275.863 353.448 275.863H362.069V241.379H344.828V215.518C344.828 209.77 347.701 206.897 353.448 206.897H362.069V181.034C362.069 175.287 364.943 172.413 370.69 172.413C376.437 172.413 379.31 175.287 379.31 181.034V224.138H396.552V215.518C396.552 209.77 399.425 206.897 405.173 206.897C410.92 206.897 413.793 209.77 413.793 215.518V241.379H422.414C428.161 241.379 431.035 244.253 431.035 250C431.035 255.747 428.161 258.621 422.414 258.621H405.173C399.425 258.621 396.552 255.747 396.552 250V241.379H379.31V258.621H387.931C393.678 258.621 396.552 261.495 396.552 267.242V275.863H405.173C410.92 275.863 413.793 278.736 413.793 284.482V293.103H465.518V267.242C465.518 261.495 468.391 258.621 474.137 258.621H482.758V241.379H439.655C433.908 241.379 431.034 238.505 431.034 232.758V181.034C431.034 175.287 433.908 172.413 439.655 172.413C445.402 172.413 448.276 175.287 448.276 181.034V206.897H456.897C462.644 206.897 465.518 209.77 465.518 215.518V224.138H491.379C497.126 224.138 500 227.011 500 232.758V267.242C500 272.989 497.126 275.863 491.379 275.863H482.758V301.724C482.758 307.471 479.885 310.345 474.137 310.345H396.552V318.966C396.552 324.713 393.678 327.587 387.931 327.587H379.31V344.827H413.793V336.207C413.794 330.46 416.667 327.586 422.414 327.586C428.161 327.586 431.035 330.46 431.035 336.207V362.069H448.276V336.207C448.276 330.46 451.15 327.586 456.897 327.586C462.644 327.586 465.518 330.46 465.518 336.207V387.931C465.518 393.678 462.644 396.552 456.897 396.552C451.15 396.552 448.276 393.678 448.276 387.931V379.31H431.035V396.552H439.655C445.402 396.552 448.276 399.425 448.276 405.173V413.793H456.897C462.644 413.793 465.518 416.667 465.518 422.414C465.518 428.161 462.644 431.034 456.897 431.034H431.035V439.655C431.035 445.402 428.161 448.276 422.414 448.276H405.173C399.425 448.276 396.552 445.402 396.552 439.655V431.034H362.069V448.276H370.69C376.437 448.276 379.31 451.15 379.31 456.897V491.379C379.31 497.126 376.437 500 370.69 500H353.448C347.701 500 344.828 497.126 344.828 491.379C344.828 485.632 347.701 482.758 353.448 482.758H362.069ZM362.069 413.793H413.793V362.069H362.069V413.793ZM258.621 379.31H275.863V362.069H258.621V379.31Z"/>
  <path
      d="M422.414 482.758C428.161 482.758 431.035 485.632 431.035 491.379C431.035 497.126 428.161 500 422.414 500H405.173C399.425 500 396.552 497.126 396.552 491.379C396.552 485.632 399.425 482.758 405.173 482.758H422.414Z"/>
  <path
      d="M465.518 482.758V474.137C465.518 468.391 468.391 465.518 474.137 465.518C479.884 465.518 482.758 468.391 482.758 474.137V491.379C482.758 497.126 479.885 500 474.137 500H456.897C451.15 500 448.276 497.126 448.276 491.379C448.276 485.632 451.15 482.758 456.897 482.758H465.518Z"/>
  <path
      d="M60.3448 0H84.4828C108.621 0 120.69 12.069 120.69 36.2069V84.4828C120.69 108.621 108.621 120.69 84.4828 120.69H36.2069C12.069 120.69 0 108.621 0 84.4828V36.2069C0 12.069 12.069 0 36.2069 0H60.3448V17.2414H43.1035C25.8621 17.2414 17.2414 25.8621 17.2414 43.1035V77.5862C17.2414 94.8276 25.8621 103.448 43.1035 103.448H77.5862C94.8276 103.448 103.448 94.8276 103.448 77.5862V43.1035C103.448 25.8621 94.8276 17.2414 77.5862 17.2414H60.3448V0Z"/>
  <path
      d="M439.655 0H463.793C487.931 0 500 12.069 500 36.2069V84.4828C500 108.621 487.931 120.69 463.793 120.69H415.517C391.379 120.69 379.31 108.621 379.31 84.4828V36.2069C379.31 12.069 391.379 0 415.517 0H439.655V17.2414H422.414C405.172 17.2414 396.552 25.8621 396.552 43.1035V77.5862C396.552 94.8276 405.172 103.448 422.414 103.448H456.897C474.138 103.448 482.759 94.8276 482.759 77.5862V43.1035C482.759 25.8621 474.138 17.2414 456.897 17.2414H439.655V0Z"/>
  <path
      d="M60.3448 379.31H84.4828C108.621 379.31 120.69 391.379 120.69 415.517V463.793C120.69 487.931 108.621 500 84.4828 500H36.2069C12.069 500 0 487.931 0 463.793V415.517C0 391.379 12.069 379.31 36.2069 379.31H60.3448V396.552H43.1035C25.8621 396.552 17.2414 405.172 17.2414 422.414V456.897C17.2414 474.138 25.8621 482.759 43.1035 482.759H77.5862C94.8276 482.759 103.448 474.138 103.448 456.897V422.414C103.448 405.172 94.8276 396.552 77.5862 396.552H60.3448V379.31Z"/>
  <path
      d="M60.3447 34.4827H70.6896C81.0344 34.4827 86.2068 39.6551 86.2068 49.9999V70.6896C86.2068 81.0344 81.0344 86.2068 70.6896 86.2068H49.9999C39.6551 86.2068 34.4827 81.0344 34.4827 70.6896V49.9999C34.4827 39.6551 39.6551 34.4827 49.9999 34.4827H60.3447Z"/>
  <path
      d="M439.655 34.4827H450C460.345 34.4827 465.517 39.6551 465.517 49.9999V70.6896C465.517 81.0344 460.345 86.2068 450 86.2068H429.311C418.966 86.2068 413.793 81.0344 413.793 70.6896V49.9999C413.793 39.6551 418.966 34.4827 429.311 34.4827H439.655Z"/>
  <path
      d="M60.3447 413.793H70.6896C81.0344 413.793 86.2068 418.966 86.2068 429.31V450C86.2068 460.345 81.0344 465.517 70.6896 465.517H49.9999C39.6551 465.517 34.4827 460.345 34.4827 450V429.31C34.4827 418.966 39.6551 413.793 49.9999 413.793H60.3447Z"/>
  <path
      d="M223.1 243.95C230.3 258.1 241.9 269.7 256.05 276.9L267.05 265.9C268.45 264.5 270.4 264.1 272.15 264.65C277.75 266.5 283.75 267.5 290 267.5C291.326 267.5 292.598 268.027 293.536 268.964C294.473 269.902 295 271.174 295 272.5V290C295 291.326 294.473 292.598 293.536 293.536C292.598 294.473 291.326 295 290 295C267.457 295 245.837 286.045 229.896 270.104C213.955 254.163 205 232.543 205 210C205 208.674 205.527 207.402 206.464 206.464C207.402 205.527 208.674 205 210 205H227.5C228.826 205 230.098 205.527 231.036 206.464C231.973 207.402 232.5 208.674 232.5 210C232.5 216.25 233.5 222.25 235.35 227.85C235.9 229.6 235.5 231.55 234.1 232.95L223.1 243.95Z"/>
</svg>
