<svg viewBox="0 0 500 500" xmlns="http://www.w3.org/2000/svg">
  <path
      d="M128.788 60.606C133.838 60.606 136.364 63.1312 136.364 68.1817C136.364 73.2322 133.838 75.7575 128.788 75.7575C123.737 75.7575 121.212 73.2322 121.212 68.1817C121.212 63.1312 123.737 60.606 128.788 60.606Z"/>
  <path
      d="M363.636 83.3333C363.636 88.3836 361.111 90.9091 356.061 90.9093C351.011 90.9093 348.485 88.3838 348.485 83.3333V60.6066H340.909C335.859 60.6066 333.333 58.0809 333.333 53.0306V37.8787C333.333 32.8283 335.859 30.3027 340.909 30.3027H348.485V7.57595C348.485 2.52545 351.011 0 356.061 0H371.212C376.263 0 378.788 2.52545 378.788 7.57595C378.788 12.6263 376.262 15.1519 371.212 15.1519H363.636V45.4546H371.212C376.263 45.4546 378.788 47.9801 378.788 53.0306V68.1814C378.788 73.2319 376.263 75.7574 371.212 75.7574H363.636V83.3333Z"/>
  <path
      d="M227.273 98.4852C227.273 103.535 224.747 106.061 219.697 106.061C214.647 106.061 212.121 103.536 212.121 98.4852V60.6066H189.395C184.344 60.6066 181.819 58.0809 181.819 53.0306V45.4546H166.667V60.6066H174.243C179.293 60.6066 181.818 63.1312 181.819 68.1814V75.7574H189.395C194.445 75.7576 196.969 78.283 196.969 83.3333V98.4852C196.969 103.535 194.445 106.061 189.395 106.061C184.344 106.061 181.819 103.536 181.819 98.4852V90.9093H166.667V98.4852C166.667 103.536 164.141 106.061 159.091 106.061C154.04 106.061 151.515 103.535 151.515 98.4852V90.9093H143.94C138.889 90.9093 136.364 88.3838 136.364 83.3333C136.364 78.2828 138.889 75.7574 143.94 75.7574H151.515V15.1519H143.94C138.889 15.1519 136.364 12.6263 136.364 7.57595C136.364 2.52545 138.889 0 143.94 0H159.091C164.141 0 166.667 2.52545 166.667 7.57595V15.1519H189.395C194.445 15.1521 196.969 17.6768 196.969 22.7268V45.4546H212.121V15.1519H204.545C199.495 15.1519 196.969 12.6263 196.969 7.57595C196.969 2.52547 199.495 2.46816e-05 204.545 0H219.697C224.748 8.83466e-05 227.273 2.52554 227.273 7.57595V15.1519H234.848C239.898 15.1519 242.424 17.6766 242.424 22.7268C242.424 27.7773 239.899 30.3027 234.848 30.3027H227.273V45.4546H234.848C239.899 45.4546 242.424 47.9801 242.424 53.0306C242.424 58.0809 239.898 60.6066 234.848 60.6066H227.273V98.4852Z"/>
  <path
      d="M280.303 90.9092C285.354 90.9092 287.879 93.4344 287.879 98.4849C287.879 103.535 285.354 106.061 280.303 106.061C275.253 106.061 272.727 103.535 272.727 98.4849C272.727 93.4344 275.253 90.9092 280.303 90.9092Z"/>
  <path
      d="M340.909 90.9092C345.96 90.9092 348.485 93.4344 348.485 98.4849C348.485 103.535 345.96 106.061 340.909 106.061C335.859 106.061 333.333 103.535 333.333 98.4849C333.333 93.4344 335.859 90.9092 340.909 90.9092Z"/>
  <path
      d="M257.576 113.636C257.576 118.687 255.051 121.212 250 121.212C244.95 121.212 242.424 118.687 242.424 113.636V68.1814C242.424 63.1311 244.95 60.6066 250 60.6066H257.576V37.8787C257.576 32.8283 260.102 30.3027 265.152 30.3027H272.727V15.1519H250C244.95 15.1519 242.424 12.6263 242.424 7.57595C242.424 2.52545 244.95 2.07522e-06 250 0H280.303C285.353 0 287.879 2.52545 287.879 7.57595V15.1519H303.031V7.57595C303.031 2.52545 305.556 0 310.607 0C315.657 0.000178767 318.181 2.52563 318.181 7.57595V15.1519H325.757C330.808 15.1519 333.333 17.6766 333.333 22.7268C333.333 27.7773 330.808 30.3027 325.757 30.3027H303.031V53.0306C303.031 58.0809 300.505 60.6065 295.455 60.6066C290.404 60.6066 287.879 58.0809 287.879 53.0306V45.4546H272.728V68.1814C272.728 73.2318 270.202 75.7573 265.152 75.7574H257.576V113.636Z"/>
  <path
      d="M303.031 106.061V90.9093H295.455C290.404 90.9093 287.879 88.3838 287.879 83.3333C287.879 78.2828 290.404 75.7574 295.455 75.7574H303.031V68.1814C303.031 63.1311 305.556 60.6055 310.607 60.6055C315.657 60.6056 318.181 63.1313 318.181 68.1814V113.636C318.181 118.686 315.657 121.212 310.607 121.212H295.455C290.404 121.212 287.879 118.687 287.879 113.636C287.879 108.586 290.404 106.061 295.455 106.061H303.031Z"/>
  <path
      d="M378.788 113.636C378.788 118.687 376.263 121.212 371.212 121.212C366.162 121.212 363.636 118.687 363.636 113.636V98.4853C363.636 93.4348 366.162 90.9093 371.212 90.9093C376.263 90.9093 378.788 93.4348 378.788 98.4853V113.636Z"/>
  <path
      d="M431.818 121.212C436.869 121.212 439.394 123.737 439.394 128.788C439.394 133.838 436.869 136.364 431.818 136.364C426.768 136.364 424.242 133.838 424.242 128.788C424.242 123.737 426.768 121.212 431.818 121.212Z"/>
  <path
      d="M128.788 90.9093C133.838 90.9093 136.364 93.4348 136.364 98.4853V106.061H143.94C148.99 106.061 151.515 108.586 151.515 113.636V121.212H166.667V113.636C166.667 108.586 169.192 106.061 174.243 106.061C179.293 106.061 181.818 108.586 181.819 113.636V121.212H196.969V113.636C196.97 108.586 199.495 106.061 204.545 106.061C209.596 106.061 212.121 108.586 212.121 113.636V128.788C212.121 133.838 209.596 136.364 204.545 136.364H196.969V151.515H174.243C169.192 151.515 166.667 148.99 166.667 143.94V136.364H98.4853C93.4348 136.364 90.9093 133.838 90.9093 128.788C90.9093 123.737 93.4348 121.212 98.4853 121.212H121.212V98.4853C121.212 93.4348 123.737 90.9093 128.788 90.9093Z"/>
  <path
      d="M219.697 136.364C224.747 136.364 227.273 138.889 227.273 143.939V151.515H212.121V143.939C212.121 138.889 214.646 136.364 219.697 136.364Z"/>
  <path
      d="M257.576 136.364V128.788C257.576 123.737 260.101 121.212 265.152 121.212C270.202 121.212 272.728 123.738 272.728 128.788V143.94C272.728 148.99 270.202 151.515 265.152 151.515H242.424V143.94C242.424 138.889 244.95 136.364 250 136.364H257.576Z"/>
  <path
      d="M333.333 143.94C333.333 148.99 330.808 151.515 325.757 151.515C320.707 151.515 318.182 148.99 318.181 143.94V128.788C318.181 123.738 320.707 121.212 325.757 121.212C330.808 121.212 333.333 123.737 333.333 128.788V143.94Z"/>
  <path
      d="M446.97 136.364C452.02 136.364 454.545 138.889 454.545 143.939C454.545 148.99 452.02 151.515 446.97 151.515C441.919 151.515 439.394 148.99 439.394 143.939C439.394 138.889 441.919 136.364 446.97 136.364Z"/>
  <path
      d="M7.57576 151.515C12.6263 151.515 15.1515 154.04 15.1515 159.091C15.1515 164.141 12.6263 166.667 7.57576 166.667C2.52525 166.667 0 164.141 0 159.091C0 154.04 2.52525 151.515 7.57576 151.515Z"/>
  <path
      d="M363.636 159.091C363.636 164.141 361.111 166.666 356.061 166.667C351.011 166.667 348.485 164.141 348.485 159.091V128.788C348.485 123.737 351.011 121.212 356.061 121.212C361.111 121.212 363.636 123.738 363.636 128.788V159.091Z"/>
  <path
      d="M401.515 121.212C406.565 121.212 409.091 123.737 409.091 128.788V159.091C409.091 164.141 406.565 166.667 401.515 166.667H386.364C381.313 166.667 378.788 164.141 378.788 159.091V128.788C378.788 123.737 381.313 121.212 386.364 121.212H401.515Z"/>
  <path
      d="M500 159.091C500 164.141 497.475 166.667 492.424 166.667C487.374 166.667 484.848 164.141 484.848 159.091V143.94C484.848 138.889 487.374 136.364 492.424 136.364C497.475 136.364 500 138.889 500 143.94V159.091Z"/>
  <path
      d="M113.636 166.667C118.687 166.667 121.212 169.192 121.212 174.242C121.212 179.293 118.687 181.818 113.636 181.818C108.586 181.818 106.061 179.293 106.061 174.242C106.061 169.192 108.586 166.667 113.636 166.667Z"/>
  <path
      d="M143.939 166.667C148.99 166.667 151.515 169.192 151.515 174.242C151.515 179.293 148.99 181.818 143.939 181.818C138.889 181.818 136.364 179.293 136.364 174.242C136.364 169.192 138.889 166.667 143.939 166.667Z"/>
  <path
      d="M53.0306 121.212C58.0809 121.212 60.6066 123.738 60.6066 128.788V136.364H83.3333C88.3838 136.364 90.9093 138.889 90.9093 143.94V151.515H98.4853C103.535 151.515 106.06 154.04 106.06 159.091C106.06 164.141 103.535 166.667 98.4853 166.667H90.9093V181.819H98.4853C103.535 181.819 106.06 184.343 106.06 189.393C106.06 194.444 103.535 196.969 98.4853 196.969H68.1814C63.1312 196.969 60.6066 194.444 60.6066 189.393C60.6067 184.343 63.1313 181.819 68.1814 181.819H75.7574V151.515H60.6066V159.091C60.6066 164.141 58.0809 166.667 53.0306 166.667C47.9801 166.667 45.4547 164.141 45.4547 159.091V151.515H22.7279C17.6775 151.515 15.1521 148.99 15.1519 143.94C15.1519 138.889 17.6774 136.364 22.7279 136.364H30.3027V128.788C30.3027 123.738 32.8282 121.212 37.8787 121.212H53.0306Z"/>
  <path
      d="M454.545 189.393C454.545 194.444 452.02 196.969 446.969 196.969C441.919 196.969 439.393 194.444 439.393 189.393V181.819H424.243V189.393C424.243 194.444 421.717 196.969 416.667 196.969C411.616 196.969 409.091 194.444 409.091 189.393V174.243C409.091 169.192 411.616 166.667 416.667 166.667H446.969C452.02 166.667 454.545 169.192 454.545 174.243V189.393Z"/>
  <path
      d="M484.848 189.393C484.848 194.444 482.323 196.969 477.273 196.969C472.223 196.969 469.697 194.444 469.697 189.393V174.243C469.697 169.192 472.223 166.667 477.273 166.667C482.323 166.667 484.848 169.192 484.848 174.243V189.393Z"/>
  <path
      d="M113.636 196.97C118.687 196.97 121.212 199.495 121.212 204.546C121.212 209.596 118.687 212.121 113.636 212.121C108.586 212.121 106.061 209.596 106.061 204.546C106.061 199.495 108.586 196.97 113.636 196.97Z"/>
  <path
      d="M378.788 204.545C378.788 209.596 376.263 212.121 371.212 212.121C366.162 212.121 363.636 209.596 363.636 204.545V196.969H356.061C351.011 196.969 348.485 194.444 348.485 189.393C348.485 184.343 351.011 181.819 356.061 181.819H363.636V174.243C363.636 169.192 366.162 166.667 371.212 166.667C376.263 166.667 378.788 169.192 378.788 174.243V204.545Z"/>
  <path
      d="M462.121 196.97C467.172 196.97 469.697 199.495 469.697 204.546C469.697 209.596 467.172 212.121 462.121 212.121C457.071 212.121 454.546 209.596 454.546 204.546C454.546 199.495 457.071 196.97 462.121 196.97Z"/>
  <path
      d="M7.57576 212.121C12.6263 212.121 15.1515 214.646 15.1515 219.697C15.1515 224.747 12.6263 227.273 7.57576 227.273C2.52525 227.273 0 224.747 0 219.697C0 214.646 2.52525 212.121 7.57576 212.121Z"/>
  <path
      d="M416.667 212.121C421.717 212.121 424.242 214.646 424.242 219.697C424.242 224.747 421.717 227.273 416.667 227.273C411.616 227.273 409.091 224.747 409.091 219.697C409.091 214.646 411.616 212.121 416.667 212.121Z"/>
  <path
      d="M151.515 242.424H143.94C138.889 242.424 136.364 239.899 136.364 234.848V227.273H128.788C123.738 227.273 121.212 224.748 121.212 219.697C121.212 214.647 123.737 212.121 128.788 212.121H143.94C148.99 212.121 151.515 214.647 151.515 219.697V242.424Z"/>
  <path
      d="M30.3027 265.152C30.3026 270.202 27.7779 272.728 22.7279 272.728C17.6775 272.728 15.152 270.202 15.1519 265.152V234.848C15.152 229.798 17.6775 227.272 22.7279 227.272C27.7779 227.272 30.3026 229.798 30.3027 234.848V265.152Z"/>
  <path
      d="M7.57576 287.879C12.6263 287.879 15.1515 290.404 15.1515 295.455C15.1515 300.505 12.6263 303.03 7.57576 303.03C2.52525 303.03 0 300.505 0 295.455C0 290.404 2.52525 287.879 7.57576 287.879Z"/>
  <path
      d="M128.788 257.576C133.838 257.576 136.364 260.101 136.364 265.152V287.879H143.94C148.99 287.879 151.515 290.404 151.515 295.455C151.515 300.505 148.99 303.03 143.94 303.031H128.788C123.737 303.031 121.212 300.505 121.212 295.455V287.879H98.4853C93.4348 287.879 90.9093 285.353 90.9093 280.303C90.9094 275.252 93.4349 272.728 98.4853 272.728H121.212V265.152C121.212 260.101 123.737 257.576 128.788 257.576Z"/>
  <path
      d="M424.243 287.879V272.728H409.091V280.303C409.091 285.353 406.565 287.879 401.515 287.879H386.364C381.313 287.879 378.788 285.353 378.788 280.303V257.576H363.636V265.152C363.636 270.202 361.111 272.728 356.061 272.728H348.485V250C348.485 244.95 351.011 242.424 356.061 242.424H363.636V234.848C363.636 229.798 366.162 227.272 371.212 227.272H401.515C406.565 227.272 409.091 229.798 409.091 234.848V257.576H424.243V250C424.243 244.95 426.768 242.424 431.819 242.424H439.393V234.848C439.394 229.798 441.919 227.272 446.969 227.272H477.273C482.323 227.272 484.848 229.798 484.848 234.848V257.576H492.424C497.475 257.576 500 260.101 500 265.152C500 270.202 497.474 272.728 492.424 272.728H484.848V280.303C484.848 285.353 482.323 287.878 477.273 287.879H462.121C457.071 287.879 454.545 285.353 454.545 280.303V257.576H439.393V295.455C439.393 300.505 436.869 303.03 431.819 303.031H416.667C411.616 303.031 409.091 300.505 409.091 295.455C409.091 290.404 411.616 287.879 416.667 287.879H424.243Z"/>
  <path
      d="M401.515 303.03C406.566 303.03 409.091 305.556 409.091 310.606C409.091 315.657 406.566 318.182 401.515 318.182C396.465 318.182 393.939 315.657 393.939 310.606C393.939 305.556 396.465 303.03 401.515 303.03Z"/>
  <path
      d="M7.57576 318.182C12.6263 318.182 15.1515 320.707 15.1515 325.758C15.1515 330.808 12.6263 333.333 7.57576 333.333C2.52525 333.333 0 330.808 0 325.758C0 320.707 2.52525 318.182 7.57576 318.182Z"/>
  <path
      d="M363.636 333.333V310.607C363.636 305.556 366.162 303.031 371.212 303.031C376.263 303.031 378.788 305.556 378.788 310.607V340.909C378.788 345.96 376.262 348.485 371.212 348.485H348.485V333.333H363.636Z"/>
  <path
      d="M22.7273 348.485C27.7778 348.485 30.3031 351.01 30.3031 356.061C30.3031 361.111 27.7778 363.636 22.7273 363.636C17.6768 363.636 15.1516 361.111 15.1516 356.061C15.1516 351.01 17.6768 348.485 22.7273 348.485Z"/>
  <path
      d="M454.545 356.061C454.545 361.111 452.02 363.636 446.969 363.636C441.919 363.636 439.394 361.111 439.393 356.061V310.607C439.393 305.556 441.919 303.031 446.969 303.031H462.121C467.172 303.031 469.697 305.556 469.697 310.607C469.697 315.657 467.172 318.181 462.121 318.181H454.545V333.333H484.848V310.607C484.848 305.556 487.374 303.031 492.424 303.031C497.475 303.031 500 305.556 500 310.607V340.909C500 345.96 497.474 348.485 492.424 348.485H454.545V356.061Z"/>
  <path
      d="M7.57576 363.636C12.6263 363.636 15.1515 366.162 15.1515 371.212C15.1515 376.263 12.6263 378.788 7.57576 378.788C2.52525 378.788 0 376.263 0 371.212C0 366.162 2.52525 363.636 7.57576 363.636Z"/>
  <path
      d="M53.0306 363.636C58.0809 363.636 60.6065 366.162 60.6066 371.212C60.6066 376.262 58.0809 378.788 53.0306 378.788H37.8787C32.8282 378.788 30.3027 376.263 30.3027 371.212C30.3028 366.162 32.8283 363.636 37.8787 363.636H53.0306Z"/>
  <path
      d="M340.909 363.636C345.96 363.636 348.485 366.162 348.485 371.212C348.485 376.263 345.96 378.788 340.909 378.788C335.859 378.788 333.333 376.263 333.333 371.212C333.333 366.162 335.859 363.636 340.909 363.636Z"/>
  <path
      d="M189.394 393.939C194.445 393.939 196.97 396.465 196.97 401.515C196.97 406.566 194.445 409.091 189.394 409.091C184.343 409.091 181.818 406.566 181.818 401.515C181.818 396.465 184.343 393.939 189.394 393.939Z"/>
  <path
      d="M242.424 401.515C242.424 406.565 239.899 409.091 234.848 409.091C229.798 409.091 227.273 406.565 227.273 401.515V393.94H204.545C199.495 393.94 196.97 391.414 196.969 386.364C196.969 381.313 199.495 378.788 204.545 378.788H212.121V371.212C212.121 366.162 214.647 363.636 219.697 363.636H227.273V356.061C227.273 351.011 229.798 348.485 234.848 348.485H257.576V356.061C257.576 361.111 255.05 363.636 250 363.636H242.424V401.515Z"/>
  <path
      d="M310.607 363.636C315.657 363.636 318.181 366.162 318.181 371.212V378.788H325.757C330.808 378.788 333.333 381.313 333.333 386.364V401.515C333.333 406.565 330.808 409.091 325.757 409.091H280.303C275.252 409.091 272.727 406.565 272.727 401.515V393.94H265.152C260.101 393.94 257.576 391.414 257.576 386.364V371.212C257.576 366.162 260.101 363.636 265.152 363.636C270.202 363.636 272.728 366.162 272.728 371.212V378.788H280.303C285.353 378.788 287.879 381.313 287.879 386.364V393.94H303.031V378.788H295.455C290.404 378.788 287.879 376.263 287.879 371.212C287.879 366.162 290.404 363.636 295.455 363.636H310.607Z"/>
  <path
      d="M401.515 393.939C406.566 393.939 409.091 396.465 409.091 401.515C409.091 406.566 406.566 409.091 401.515 409.091C396.465 409.091 393.939 406.566 393.939 401.515C393.939 396.465 396.465 393.939 401.515 393.939Z"/>
  <path
      d="M219.697 409.091C224.747 409.091 227.273 411.616 227.273 416.667C227.273 421.717 224.747 424.242 219.697 424.242C214.646 424.242 212.121 421.717 212.121 416.667C212.121 411.616 214.646 409.091 219.697 409.091Z"/>
  <path
      d="M310.606 424.242C315.657 424.242 318.182 426.768 318.182 431.818C318.182 436.869 315.657 439.394 310.606 439.394C305.556 439.394 303.03 436.869 303.03 431.818C303.03 426.768 305.556 424.242 310.606 424.242Z"/>
  <path
      d="M196.969 446.969C196.969 452.02 194.445 454.545 189.395 454.545C184.344 454.545 181.819 452.02 181.819 446.969V431.819C181.819 426.768 184.344 424.243 189.395 424.243H204.545C209.596 424.243 212.121 426.768 212.121 431.819C212.121 436.869 209.596 439.395 204.545 439.395H196.969V446.969Z"/>
  <path
      d="M257.576 439.395V431.819C257.576 426.768 260.101 424.243 265.152 424.243C270.202 424.243 272.728 426.768 272.728 431.819V446.969C272.728 452.02 270.202 454.545 265.152 454.545H234.848C229.798 454.545 227.272 452.02 227.272 446.969C227.272 441.919 229.798 439.395 234.848 439.395H257.576Z"/>
  <path
      d="M37.8787 166.667C42.9292 166.667 45.4546 169.192 45.4546 174.243V196.969H53.0306C58.0809 196.969 60.6065 199.495 60.6066 204.545V212.121H98.4852C103.535 212.121 106.06 214.647 106.06 219.697C106.06 224.747 103.535 227.273 98.4852 227.273H75.7574V242.424H106.06V234.848C106.06 229.798 108.586 227.273 113.636 227.273C118.686 227.273 121.212 229.798 121.212 234.848V250C121.212 255.05 118.687 257.576 113.636 257.576H90.9093V265.152C90.9092 270.202 88.3837 272.728 83.3333 272.728H60.6066V287.879H68.1814C73.2319 287.879 75.7574 290.404 75.7574 295.455V303.031H113.636C118.687 303.031 121.212 305.556 121.212 310.607V318.181H151.515V333.333H136.364V378.788H151.515V356.061C151.515 351.011 154.04 348.485 159.091 348.485H196.969V371.212C196.969 376.262 194.445 378.788 189.395 378.788C184.344 378.788 181.819 376.262 181.819 371.212V363.636H166.667V409.091H174.243C179.293 409.091 181.819 411.616 181.819 416.667C181.819 421.717 179.293 424.243 174.243 424.243H166.667V462.121C166.667 467.172 164.141 469.697 159.091 469.697H128.788C123.737 469.697 121.212 467.172 121.212 462.121V446.969C121.212 441.919 123.738 439.395 128.788 439.395H136.364V416.667C136.364 411.616 138.889 409.091 143.94 409.091H151.515V393.94H136.364V401.515C136.364 406.565 133.838 409.091 128.788 409.091C123.737 409.091 121.212 406.565 121.212 401.515V363.636H113.636C108.586 363.636 106.06 361.111 106.06 356.061V348.485H90.9093V363.636H98.4852C103.535 363.636 106.06 366.162 106.06 371.212C106.06 376.262 103.535 378.788 98.4852 378.788H83.3333C78.2828 378.788 75.7574 376.262 75.7574 371.212V348.485H37.8787C32.8283 348.485 30.3028 345.96 30.3027 340.909C30.3027 335.859 32.8282 333.333 37.8787 333.333H75.7574V318.181H68.1814C63.1313 318.181 60.6067 315.657 60.6066 310.607V303.031H45.4546V310.607C45.4545 315.657 42.929 318.181 37.8787 318.181H22.7279C17.6775 318.181 15.1521 315.657 15.1519 310.607C15.1519 305.556 17.6774 303.031 22.7279 303.031H30.3027V295.455C30.3028 290.404 32.8283 287.879 37.8787 287.879H45.4546V212.121H37.8787C32.8282 212.121 30.3027 209.596 30.3027 204.545V174.243C30.3027 169.192 32.8282 166.667 37.8787 166.667ZM90.9093 333.333H106.06V318.181H90.9093V333.333Z"/>
  <path
      d="M204.545 454.546C209.596 454.546 212.121 457.071 212.121 462.121C212.121 467.172 209.596 469.697 204.545 469.697C199.495 469.697 196.97 467.172 196.97 462.121C196.97 457.071 199.495 454.546 204.545 454.546Z"/>
  <path
      d="M446.969 439.393C452.02 439.393 454.545 441.919 454.545 446.969V454.545H462.121C467.172 454.545 469.697 457.071 469.697 462.121C469.697 467.172 467.172 469.697 462.121 469.697H446.969C441.919 469.697 439.393 467.172 439.393 462.121V446.969C439.394 441.919 441.919 439.394 446.969 439.393Z"/>
  <path
      d="M174.242 469.697C179.293 469.697 181.818 472.222 181.818 477.273C181.818 482.323 179.293 484.849 174.242 484.849C169.192 484.849 166.667 482.323 166.667 477.273C166.667 472.222 169.192 469.697 174.242 469.697Z"/>
  <path
      d="M219.697 469.697C224.747 469.697 227.273 472.222 227.273 477.273C227.273 482.323 224.747 484.849 219.697 484.849C214.646 484.849 212.121 482.323 212.121 477.273C212.121 472.222 214.646 469.697 219.697 469.697Z"/>
  <path
      d="M280.303 454.545C285.353 454.545 287.879 457.071 287.879 462.121V477.273C287.879 482.323 285.353 484.848 280.303 484.848H250C244.95 484.848 242.424 482.323 242.424 477.273C242.424 472.223 244.95 469.697 250 469.697H272.727V462.121C272.727 457.071 275.252 454.545 280.303 454.545Z"/>
  <path
      d="M393.94 477.273C393.94 482.323 391.414 484.848 386.364 484.848C381.314 484.848 378.788 482.323 378.788 477.273V462.121C378.788 457.071 381.313 454.545 386.364 454.545H401.515C406.565 454.545 409.091 457.071 409.091 462.121C409.091 467.172 406.565 469.697 401.515 469.697H393.94V477.273Z"/>
  <path
      d="M492.424 469.697C497.475 469.697 500 472.222 500 477.273C500 482.323 497.475 484.849 492.424 484.849C487.374 484.849 484.849 482.323 484.849 477.273C484.849 472.222 487.374 469.697 492.424 469.697Z"/>
  <path
      d="M159.091 484.849C164.141 484.849 166.667 487.374 166.667 492.424C166.667 497.475 164.141 500 159.091 500C154.04 500 151.515 497.475 151.515 492.424C151.515 487.374 154.04 484.849 159.091 484.849Z"/>
  <path
      d="M204.545 484.849C209.596 484.849 212.121 487.374 212.121 492.424C212.121 497.475 209.596 500 204.545 500C199.495 500 196.97 497.475 196.97 492.424C196.97 487.374 199.495 484.849 204.545 484.849Z"/>
  <path
      d="M234.848 484.849C239.899 484.849 242.424 487.374 242.424 492.424C242.424 497.475 239.899 500 234.848 500C229.798 500 227.273 497.475 227.273 492.424C227.273 487.374 229.798 484.849 234.848 484.849Z"/>
  <path
      d="M318.181 492.424C318.181 497.474 315.657 500 310.607 500C305.556 500 303.031 497.475 303.031 492.424V462.121C303.031 457.071 305.556 454.545 310.607 454.545C315.657 454.546 318.181 457.071 318.181 462.121V469.697H325.757C330.808 469.697 333.333 472.223 333.333 477.273C333.333 482.323 330.808 484.848 325.757 484.848H318.181V492.424Z"/>
  <path
      d="M363.636 492.424C363.636 497.474 361.111 500 356.061 500C351.011 500 348.485 497.475 348.485 492.424V454.545H325.757C320.707 454.545 318.181 452.02 318.181 446.969C318.182 441.919 320.707 439.395 325.757 439.395H333.333V431.819C333.333 426.768 335.859 424.243 340.909 424.243H348.485V386.364C348.485 381.313 351.011 378.788 356.061 378.788H363.636V371.212C363.636 366.162 366.162 363.636 371.212 363.636H378.788V356.061C378.788 351.011 381.313 348.485 386.364 348.485C391.414 348.485 393.94 351.011 393.94 356.061V363.636H409.091V348.485H401.515C396.465 348.485 393.94 345.96 393.94 340.909C393.94 335.859 396.465 333.334 401.515 333.333H416.667C421.717 333.333 424.243 335.859 424.243 340.909V363.636H431.819C436.869 363.636 439.393 366.162 439.393 371.212V378.788H469.697V371.212C469.697 366.162 472.223 363.636 477.273 363.636H492.424C497.475 363.636 500 366.162 500 371.212C500 376.263 497.475 378.788 492.424 378.788H484.848V386.364C484.848 391.414 482.323 393.94 477.273 393.94H454.545V409.091H492.424C497.475 409.091 500 411.616 500 416.667C500 421.717 497.475 424.243 492.424 424.243H484.848V431.819C484.848 436.869 482.323 439.394 477.273 439.395C472.223 439.395 469.697 436.869 469.697 431.819V424.243H439.393V431.819C439.393 436.869 436.869 439.394 431.819 439.395H424.243V446.969C424.243 452.02 421.717 454.545 416.667 454.545C411.616 454.545 409.091 452.02 409.091 446.969V439.395H378.788V446.969C378.788 452.02 376.263 454.545 371.212 454.545H363.636V492.424ZM378.788 424.243H424.243V378.788H378.788V424.243Z"/>
  <path
      d="M431.819 484.848C436.869 484.848 439.393 487.374 439.393 492.424C439.393 497.474 436.869 500 431.819 500H401.515C396.464 500 393.94 497.474 393.94 492.424C393.94 487.374 396.465 484.848 401.515 484.848H431.819Z"/>
  <path
      d="M462.121 484.849C467.172 484.849 469.697 487.374 469.697 492.424C469.697 497.475 467.172 500 462.121 500C457.071 500 454.546 497.475 454.546 492.424C454.546 487.374 457.071 484.849 462.121 484.849Z"/>
  <path
      d="M53.0303 0H74.2424C95.4545 0 106.061 10.6061 106.061 31.8182V74.2424C106.061 95.4545 95.4545 106.061 74.2424 106.061H31.8182C10.6061 106.061 0 95.4545 0 74.2424V31.8182C0 10.6061 10.6061 0 31.8182 0H53.0303V15.1515H37.8788C22.7273 15.1515 15.1515 22.7273 15.1515 37.8788V68.1818C15.1515 83.3333 22.7273 90.9091 37.8788 90.9091H68.1818C83.3333 90.9091 90.9091 83.3333 90.9091 68.1818V37.8788C90.9091 22.7273 83.3333 15.1515 68.1818 15.1515H53.0303V0Z"/>
  <path
      d="M446.97 0H468.182C489.394 0 500 10.6061 500 31.8182V74.2424C500 95.4545 489.394 106.061 468.182 106.061H425.758C404.545 106.061 393.939 95.4545 393.939 74.2424V31.8182C393.939 10.6061 404.545 0 425.758 0H446.97V15.1515H431.818C416.667 15.1515 409.091 22.7273 409.091 37.8788V68.1818C409.091 83.3333 416.667 90.9091 431.818 90.9091H462.121C477.273 90.9091 484.848 83.3333 484.848 68.1818V37.8788C484.848 22.7273 477.273 15.1515 462.121 15.1515H446.97V0Z"/>
  <path
      d="M53.0303 393.939H74.2424C95.4545 393.939 106.061 404.545 106.061 425.758V468.182C106.061 489.394 95.4545 500 74.2424 500H31.8182C10.6061 500 0 489.394 0 468.182V425.758C0 404.545 10.6061 393.939 31.8182 393.939H53.0303V409.091H37.8788C22.7273 409.091 15.1515 416.667 15.1515 431.818V462.121C15.1515 477.273 22.7273 484.848 37.8788 484.848H68.1818C83.3333 484.848 90.9091 477.273 90.9091 462.121V431.818C90.9091 416.667 83.3333 409.091 68.1818 409.091H53.0303V393.939Z"/>
  <path
      d="M53.0303 30.3031H62.1212C71.2121 30.3031 75.7575 34.8486 75.7575 43.9395V62.1213C75.7575 71.2122 71.2121 75.7576 62.1212 75.7576H43.9393C34.8484 75.7576 30.303 71.2122 30.303 62.1213V43.9395C30.303 34.8486 34.8484 30.3031 43.9393 30.3031H53.0303Z"/>
  <path
      d="M446.97 30.3031H456.061C465.152 30.3031 469.697 34.8486 469.697 43.9395V62.1213C469.697 71.2122 465.152 75.7576 456.061 75.7576H437.879C428.788 75.7576 424.242 71.2122 424.242 62.1213V43.9395C424.242 34.8486 428.788 30.3031 437.879 30.3031H446.97Z"/>
  <path
      d="M53.0303 424.242H62.1212C71.2121 424.242 75.7575 428.788 75.7575 437.879V456.061C75.7575 465.152 71.2121 469.697 62.1212 469.697H43.9393C34.8484 469.697 30.303 465.152 30.303 456.061V437.879C30.303 428.788 34.8484 424.242 43.9393 424.242H53.0303Z"/>
  <path
      d="M238.9 283.25L240.3 262.1L278.7 227.5C280.4 225.95 278.35 225.2 276.1 226.55L228.7 256.5L208.2 250C203.8 248.75 203.75 245.7 209.2 243.5L289.05 212.7C292.7 211.05 296.2 213.6 294.8 219.2L281.2 283.25C280.25 287.8 277.5 288.9 273.7 286.8L253 271.5L243.05 281.15C241.9 282.3 240.95 283.25 238.9 283.25Z"/>
</svg>
